<?xml version="1.0" encoding="utf-8"?>
<!-- Generator: Adobe Illustrator 27.5.0, SVG Export Plug-In . SVG Version: 6.00 Build 0)  -->
<svg version="1.1" xmlns="http://www.w3.org/2000/svg" xmlns:xlink="http://www.w3.org/1999/xlink" x="0px" y="0px"
	 viewBox="0 0 750 500" style="enable-background:new 0 0 750 500;" xml:space="preserve">
<g id="BACKGROUND">
	<rect style="fill:#F4E9D6;" width="750" height="500"/>
</g>
<g id="OBJECTS">
	<g>
		<g>
			<path style="fill:#222733;" d="M629.757,76.253H188.735c-8.03,0-14.54,6.51-14.54,14.54v274.454c0,8.03,6.51,14.54,14.54,14.54
				h441.022c8.031,0,14.54-6.51,14.54-14.54V90.793C644.297,82.763,637.787,76.253,629.757,76.253z"/>
			<path style="fill:#4FB0C3;" d="M188.735,351.167c-2.815,0-5.105-2.29-5.105-5.105V90.794c0-2.815,2.29-5.106,5.105-5.106h441.022
				c2.815,0,5.105,2.291,5.105,5.106v255.268c0,2.815-2.29,5.105-5.105,5.105H188.735z"/>
			<rect x="193.624" y="104.86" style="fill:#FFFFFF;" width="430.024" height="92.145"/>
			<g>
				<path style="fill:#E96C58;" d="M320.862,206.942H198.906c-2.917,0-5.283,2.365-5.283,5.283v112.303
					c0,2.917,2.365,5.283,5.283,5.283h121.956c2.917,0,5.283-2.365,5.283-5.283V212.224
					C326.145,209.307,323.78,206.942,320.862,206.942z"/>
				<g>
					<g>
						<path style="fill:#FFFFFF;" d="M272.553,242.676c-1.14-2.146-2.752-3.96-4.662-5.362l0.496-5.036l-6.665-2.311l-2.723,4.255
							c-1.172-0.04-2.364,0.037-3.564,0.268c-1.2,0.231-2.336,0.602-3.41,1.073l-4.106-2.943l-5.334,4.617l2.327,4.494
							c-1.255,2.01-2.08,4.292-2.343,6.708l-4.589,2.079l1.331,6.928l5.033,0.23c1.14,2.146,2.752,3.96,4.662,5.362l-0.496,5.036
							l6.665,2.311l2.723-4.255c1.172,0.039,2.364-0.037,3.564-0.268c1.2-0.231,2.336-0.602,3.41-1.072l4.106,2.943l5.334-4.617
							l-2.327-4.493c1.255-2.01,2.079-4.292,2.343-6.708l4.589-2.079l-1.331-6.928L272.553,242.676z M260.306,259.848
							c-5.342,1.026-10.505-2.472-11.531-7.814c-1.027-5.342,2.472-10.505,7.814-11.531c5.342-1.027,10.505,2.472,11.531,7.814
							C269.147,253.659,265.649,258.821,260.306,259.848z"/>
						<path style="fill:#FFFFFF;" d="M257.506,245.273c-2.707,0.52-4.48,3.136-3.96,5.844s3.136,4.48,5.844,3.96
							c2.707-0.52,4.48-3.136,3.96-5.844C262.83,246.526,260.214,244.753,257.506,245.273z"/>
					</g>
					<g>
						<path style="fill:#FFFFFF;" d="M296.705,306.476h-76.514c-0.901,0-1.631,0.73-1.631,1.631c0,0.901,0.73,1.631,1.631,1.631
							h76.514c0.901,0,1.631-0.73,1.631-1.631C298.336,307.206,297.606,306.476,296.705,306.476z"/>
						<path style="fill:#FFFFFF;" d="M220.191,298.077h76.514c0.901,0,1.631-0.73,1.631-1.631c0-0.901-0.73-1.631-1.631-1.631
							h-76.514c-0.901,0-1.631,0.73-1.631,1.631C218.56,297.347,219.29,298.077,220.191,298.077z"/>
						<path style="fill:#222733;" d="M240.326,286.416h36.245c0.901,0,1.631-0.73,1.631-1.631c0-0.901-0.73-1.631-1.631-1.631
							h-36.245c-0.901,0-1.631,0.73-1.631,1.631C238.694,285.686,239.425,286.416,240.326,286.416z"/>
					</g>
				</g>
			</g>
			<g>
				<path style="fill:#39848E;" d="M469.614,206.942H347.658c-2.917,0-5.283,2.365-5.283,5.283v112.303
					c0,2.917,2.365,5.283,5.283,5.283h121.956c2.917,0,5.283-2.365,5.283-5.283V212.224
					C474.896,209.307,472.531,206.942,469.614,206.942z"/>
				<g>
					<g>
						<path style="fill:#FFFFFF;" d="M420.66,234.961c-1.967-0.197-3.626,1.342-3.626,3.269v-1.422c0-1.719-1.237-3.286-2.947-3.457
							c-1.967-0.197-3.625,1.343-3.625,3.27v-0.6c0-1.719-1.237-3.286-2.947-3.457c-1.967-0.197-3.625,1.343-3.625,3.269v-10.316
							c0-1.815-1.471-3.286-3.286-3.286h0c-1.815,0-3.286,1.471-3.286,3.286v12.872h-0.091c-1.966,0-3.56,1.594-3.56,3.56v14.605
							c0,1.834,0.62,3.613,1.759,5.049c1.541,1.944,3.886,3.077,6.367,3.077h13.122c4.802,0,8.695-3.893,8.695-8.695v-3.698V241.95
							v-3.533C423.607,236.698,422.37,235.132,420.66,234.961z"/>
						<path style="fill:#FFFFFF;" d="M419.911,266.098H397.36c-1.154,0-2.09,0.936-2.09,2.091c0,1.154,0.936,2.09,2.09,2.09h22.551
							c1.154,0,2.09-0.936,2.09-2.09C422.001,267.034,421.066,266.098,419.911,266.098z"/>
					</g>
					<g>
						<path style="fill:#FFFFFF;" d="M446.893,305.946h-76.515c-0.901,0-1.631,0.73-1.631,1.631c0,0.901,0.73,1.631,1.631,1.631
							h76.515c0.901,0,1.631-0.73,1.631-1.631C448.524,306.676,447.794,305.946,446.893,305.946z"/>
						<path style="fill:#FFFFFF;" d="M370.378,297.547h76.515c0.901,0,1.631-0.73,1.631-1.631c0-0.901-0.73-1.631-1.631-1.631
							h-76.515c-0.901,0-1.631,0.73-1.631,1.631C368.747,296.816,369.478,297.547,370.378,297.547z"/>
						<path style="fill:#222733;" d="M390.513,285.886h36.245c0.901,0,1.631-0.73,1.631-1.631c0-0.901-0.73-1.631-1.631-1.631
							h-36.245c-0.901,0-1.631,0.73-1.631,1.631C388.882,285.155,389.612,285.886,390.513,285.886z"/>
					</g>
				</g>
			</g>
			<g>
				<path style="fill:#E96C58;" d="M618.365,206.942H496.409c-2.917,0-5.283,2.365-5.283,5.283v112.303
					c0,2.917,2.365,5.283,5.283,5.283h121.956c2.918,0,5.283-2.365,5.283-5.283V212.224
					C623.648,209.307,621.283,206.942,618.365,206.942z"/>
				<g>
					<path style="fill:#FFFFFF;" d="M557.387,231.06c-12.175,0-22.045,7.197-22.045,16.075c0,4.09,2.112,7.811,5.562,10.648
						l-0.878,3.336c-0.235,0.894,0.62,1.689,1.495,1.389l4.598-1.576c3.301,1.437,7.146,2.277,11.269,2.277
						c12.175,0,22.045-7.197,22.045-16.075C579.433,238.257,569.563,231.06,557.387,231.06z M546.135,249.934
						c-1.546,0-2.8-1.253-2.8-2.8c0-1.546,1.253-2.8,2.8-2.8c1.546,0,2.8,1.253,2.8,2.8
						C548.935,248.68,547.681,249.934,546.135,249.934z M557.879,249.934c-1.546,0-2.8-1.253-2.8-2.8c0-1.546,1.253-2.8,2.8-2.8
						c1.546,0,2.8,1.253,2.8,2.8C560.679,248.68,559.425,249.934,557.879,249.934z M569.623,249.934c-1.546,0-2.8-1.253-2.8-2.8
						c0-1.546,1.254-2.8,2.8-2.8c1.546,0,2.8,1.253,2.8,2.8C572.423,248.68,571.169,249.934,569.623,249.934z"/>
					<g>
						<path style="fill:#FFFFFF;" d="M595.645,306.235H519.13c-0.901,0-1.631,0.73-1.631,1.631s0.73,1.631,1.631,1.631h76.515
							c0.901,0,1.631-0.73,1.631-1.631S596.545,306.235,595.645,306.235z"/>
						<path style="fill:#FFFFFF;" d="M519.13,297.836h76.515c0.901,0,1.631-0.73,1.631-1.631s-0.73-1.631-1.631-1.631H519.13
							c-0.901,0-1.631,0.73-1.631,1.631S518.229,297.836,519.13,297.836z"/>
						<path style="fill:#E96C58;" d="M539.265,286.175h36.245c0.901,0,1.631-0.73,1.631-1.631c0-0.901-0.73-1.631-1.631-1.631
							h-36.245c-0.901,0-1.631,0.73-1.631,1.631C537.634,285.445,538.364,286.175,539.265,286.175z"/>
					</g>
				</g>
			</g>
			<g>
				
					<ellipse transform="matrix(0.229 -0.9734 0.9734 0.229 222.9912 521.7178)" style="fill:#E96C58;" cx="440.843" cy="120.09" rx="7.682" ry="7.682"/>
				<path style="fill:#4FB0C3;" d="M364.687,121.721h56.453c0.901,0,1.631-0.73,1.631-1.631c0-0.901-0.73-1.631-1.631-1.631h-56.453
					c-0.901,0-1.631,0.73-1.631,1.631C363.056,120.991,363.786,121.721,364.687,121.721z"/>
			</g>
			<g>
				<g>
					<g>
						
							<text transform="matrix(1 0 0 1 220.2442 153.9344)" style="font-family:'MontserratAlternates-Black'; font-size:27.1264px;">Responsive</text>
					</g>
					<g>
						<text transform="matrix(1 0 0 1 220.2442 176.8914)" style="font-family:'JosefinSans-Regular'; font-size:17.8325px;">Web Design</text>
					</g>
				</g>
				<g>
					<g>
						<g>
							<path style="fill:#4FB0C3;" d="M578.948,174.39c-10.762,0-19.517-8.756-19.517-19.517c0-10.762,8.755-19.517,19.517-19.517
								c10.762,0,19.517,8.755,19.517,19.517C598.466,165.634,589.71,174.39,578.948,174.39z M578.948,137.283
								c-9.699,0-17.59,7.891-17.59,17.59c0,9.699,7.891,17.59,17.59,17.59c9.699,0,17.59-7.891,17.59-17.59
								C596.539,145.173,588.648,137.283,578.948,137.283z"/>
							<path style="fill:#4FB0C3;" d="M578.948,174.39c-5.506,0-9.82-8.573-9.82-19.517s4.313-19.517,9.82-19.517
								c5.506,0,9.82,8.573,9.82,19.517S584.455,174.39,578.948,174.39z M578.948,137.283c-4.278,0-7.893,8.055-7.893,17.59
								c0,9.535,3.615,17.59,7.893,17.59c4.279,0,7.893-8.055,7.893-17.59C586.841,145.338,583.227,137.283,578.948,137.283z"/>
							<rect x="560.395" y="153.909" style="fill:#4FB0C3;" width="37.107" height="1.927"/>
							<rect x="577.985" y="136.319" style="fill:#4FB0C3;" width="1.927" height="37.107"/>
							<path style="fill:#4FB0C3;" d="M579.052,145.608c-4.658,0-9.316-0.849-13.942-2.548l0.664-1.809
								c8.811,3.235,17.745,3.235,26.555,0l0.664,1.809C588.369,144.759,583.71,145.608,579.052,145.608z"/>
							<path style="fill:#4FB0C3;" d="M565.774,168.494l-0.664-1.809c9.251-3.396,18.633-3.396,27.884,0l-0.664,1.809
								C583.519,165.259,574.585,165.259,565.774,168.494z"/>
						</g>
					</g>
					<path style="fill:#FFFFFF;" d="M599.434,141.795c0,3.557-2.883,6.44-6.44,6.44c-3.557,0-6.44-2.883-6.44-6.44
						c0-3.557,2.883-6.44,6.44-6.44C596.551,135.356,599.434,138.239,599.434,141.795z"/>
					<path style="fill:#E96C58;" d="M596.518,141.795c0,1.946-1.578,3.524-3.524,3.524c-1.946,0-3.524-1.578-3.524-3.524
						c0-1.946,1.578-3.524,3.524-3.524C594.94,138.271,596.518,139.849,596.518,141.795z"/>
				</g>
			</g>
		</g>
		<g>
			<g>
				<path style="fill:#E96C58;" d="M639.759,347.975c-0.391-2.05-2.184-3.533-4.271-3.533h-21.932c-2.087,0-3.88,1.483-4.271,3.533
					l-2.284,11.979h35.043L639.759,347.975z"/>
				<path style="fill:#E96C58;" d="M595.463,347.975c-0.391-2.05-2.184-3.533-4.271-3.533h-21.933c-2.087,0-3.88,1.483-4.271,3.533
					l-2.284,11.979h35.043L595.463,347.975z"/>
				<path style="fill:#E96C58;" d="M551.166,347.975c-0.391-2.05-2.184-3.533-4.271-3.533h-21.932c-2.087,0-3.88,1.483-4.271,3.533
					l-2.284,11.979h35.043L551.166,347.975z"/>
				<path style="fill:#E96C58;" d="M506.87,347.975c-0.391-2.05-2.184-3.533-4.271-3.533h-21.932c-2.087,0-3.88,1.483-4.271,3.533
					l-2.284,11.979h35.043L506.87,347.975z"/>
				<path style="fill:#E96C58;" d="M329.684,347.975c-0.391-2.05-2.184-3.533-4.271-3.533H303.48c-2.087,0-3.88,1.483-4.271,3.533
					l-2.284,11.979h35.043L329.684,347.975z"/>
				<path style="fill:#E96C58;" d="M285.387,347.975c-0.391-2.05-2.184-3.533-4.271-3.533h-21.932c-2.087,0-3.88,1.483-4.271,3.533
					l-2.284,11.979h35.043L285.387,347.975z"/>
				<path style="fill:#E96C58;" d="M241.091,347.975c-0.391-2.05-2.184-3.533-4.271-3.533h-21.932c-2.087,0-3.88,1.483-4.271,3.533
					l-2.284,11.979h35.043L241.091,347.975z"/>
				<path style="fill:#E96C58;" d="M196.794,347.975c-0.391-2.05-2.184-3.533-4.271-3.533h-21.932c-2.087,0-3.88,1.483-4.271,3.533
					l-2.284,11.979h35.043L196.794,347.975z"/>
				<path style="fill:#E96C58;" d="M462.573,347.975c-0.391-2.05-2.184-3.533-4.271-3.533H347.777c-2.087,0-3.88,1.483-4.271,3.533
					l-2.284,11.979h123.636L462.573,347.975z"/>
			</g>
		</g>
		<path style="fill:#363F52;" d="M657.531,357.364h-497.79c-2.911,0-5.27,2.359-5.27,5.27v20.176c0,2.91,2.359,5.27,5.27,5.27
			h497.79c2.91,0,5.27-2.359,5.27-5.27v-20.176C662.801,359.723,660.441,357.364,657.531,357.364z"/>
	</g>
	<g>
		<g>
			<path style="fill:#222733;" d="M552.617,443.553c-12.19,0-22.108-9.918-22.108-22.108V223.994
				c0-12.19,9.918-22.107,22.108-22.107h102.408c12.19,0,22.107,9.917,22.107,22.107v197.451c0,12.19-9.917,22.108-22.107,22.108
				H552.617z"/>
			<path style="fill:#4FB0C3;" d="M670.519,224.169v197.445c0,8.747-7.091,15.838-15.838,15.838H552.275
				c-8.747,0-15.838-7.091-15.838-15.838V224.169c0-8.756,7.091-15.847,15.838-15.847h102.407
				C663.429,208.322,670.519,215.413,670.519,224.169z"/>
			<path style="fill:#FFFFFF;" d="M670.519,223.998v59.995H536.436v-59.995c0-8.756,7.091-15.847,15.838-15.847h102.407
				C663.429,208.151,670.519,215.242,670.519,223.998z"/>
			<path style="fill:#222733;" d="M583.476,203.816v9.677c0,2.735,2.217,4.953,4.953,4.953h30.784c2.735,0,4.953-2.218,4.953-4.953
				v-9.677H583.476z"/>
		</g>
		<g>
			<g>
				<g>
					<path style="fill:#E96C58;" d="M579.334,331.54H546.95c-1.778,0-3.219-1.441-3.219-3.219v-32.384
						c0-1.778,1.441-3.219,3.219-3.219h32.384c1.778,0,3.219,1.441,3.219,3.219v32.384
						C582.554,330.099,581.112,331.54,579.334,331.54z"/>
					<g>
						<path style="fill:#FFFFFF;" d="M566.837,311.146c-0.549-1.033-1.324-1.906-2.244-2.581l0.239-2.424l-3.208-1.112l-1.311,2.048
							c-0.564-0.019-1.138,0.018-1.716,0.129c-0.578,0.111-1.124,0.289-1.641,0.516l-1.976-1.416l-2.567,2.222l1.12,2.163
							c-0.604,0.968-1.001,2.066-1.128,3.229l-2.209,1.001l0.641,3.335l2.422,0.111c0.549,1.033,1.324,1.906,2.244,2.581
							l-0.239,2.424l3.208,1.112l1.311-2.048c0.564,0.019,1.138-0.018,1.716-0.129c0.578-0.111,1.124-0.29,1.641-0.516l1.976,1.416
							l2.567-2.222l-1.12-2.163c0.604-0.968,1.001-2.066,1.128-3.229l2.209-1.001l-0.641-3.335L566.837,311.146z M560.943,319.411
							c-2.571,0.494-5.056-1.19-5.55-3.761c-0.494-2.571,1.19-5.056,3.761-5.55c2.571-0.494,5.056,1.19,5.55,3.761
							C565.198,316.432,563.514,318.917,560.943,319.411z"/>
						<path style="fill:#FFFFFF;" d="M559.595,312.396c-1.303,0.25-2.156,1.51-1.906,2.813c0.25,1.303,1.51,2.156,2.813,1.906
							c1.303-0.25,2.156-1.51,1.906-2.813S560.898,312.146,559.595,312.396z"/>
						<path style="fill:#FFFFFF;" d="M574.903,304.87c-0.038-0.623-0.211-1.238-0.523-1.796l0.665-1.147l-1.344-1.281l-1.114,0.72
							c-0.572-0.286-1.195-0.428-1.819-0.436l-0.664-1.155l-1.782,0.524l0.067,1.328c-0.257,0.171-0.501,0.369-0.723,0.602
							c-0.222,0.233-0.409,0.486-0.567,0.751l-1.33-0.003l-0.437,1.805l1.186,0.607c0.038,0.623,0.211,1.238,0.523,1.796
							l-0.666,1.147l1.345,1.281l1.114-0.72c0.572,0.286,1.195,0.428,1.819,0.436l0.664,1.155l1.782-0.524l-0.067-1.328
							c0.257-0.171,0.501-0.369,0.723-0.602c0.222-0.233,0.409-0.486,0.567-0.751l1.33,0.003l0.437-1.805L574.903,304.87z
							 M572.588,306.919c-0.988,1.037-2.629,1.076-3.666,0.089c-1.037-0.988-1.077-2.629-0.089-3.666
							c0.988-1.037,2.629-1.076,3.666-0.089C573.536,304.241,573.576,305.882,572.588,306.919z"/>
						<path style="fill:#FFFFFF;" d="M569.759,304.224c-0.501,0.525-0.481,1.357,0.045,1.858c0.525,0.501,1.357,0.48,1.858-0.045
							c0.501-0.525,0.48-1.357-0.045-1.858C571.091,303.678,570.26,303.698,569.759,304.224z"/>
					</g>
				</g>
				<g>
					<path style="fill:#FFFFFF;" d="M660.674,325.187h-62.996c-0.742,0-1.343,0.601-1.343,1.343s0.601,1.343,1.343,1.343h62.996
						c0.742,0,1.343-0.601,1.343-1.343S661.415,325.187,660.674,325.187z"/>
					<path style="fill:#FFFFFF;" d="M660.674,315.586h-62.996c-0.742,0-1.343,0.601-1.343,1.343s0.601,1.343,1.343,1.343h62.996
						c0.742,0,1.343-0.601,1.343-1.343S661.415,315.586,660.674,315.586z"/>
					<path style="fill:#FFFFFF;" d="M597.677,308.671h62.996c0.742,0,1.343-0.601,1.343-1.343s-0.601-1.343-1.343-1.343h-62.996
						c-0.742,0-1.343,0.601-1.343,1.343S596.936,308.671,597.677,308.671z"/>
					<path style="fill:#FFFFFF;" d="M597.677,299.07h41.28c0.742,0,1.343-0.601,1.343-1.343c0-0.742-0.601-1.343-1.343-1.343h-41.28
						c-0.742,0-1.343,0.601-1.343,1.343C596.334,298.469,596.936,299.07,597.677,299.07z"/>
				</g>
			</g>
			<g>
				<g>
					<path style="fill:#39848E;" d="M579.334,374.278H546.95c-1.778,0-3.219-1.441-3.219-3.219v-32.384
						c0-1.778,1.441-3.219,3.219-3.219h32.384c1.778,0,3.219,1.441,3.219,3.219v32.384
						C582.554,372.837,581.112,374.278,579.334,374.278z"/>
					<g>
						<path style="fill:#FFFFFF;" d="M568.27,349.005c-1.021-0.102-1.882,0.697-1.882,1.697v-0.738c0-0.892-0.642-1.705-1.53-1.794
							c-1.021-0.102-1.882,0.697-1.882,1.697v-0.311c0-0.892-0.642-1.705-1.53-1.794c-1.021-0.102-1.882,0.697-1.882,1.697v-5.354
							c0-0.942-0.764-1.706-1.706-1.706l0,0c-0.942,0-1.706,0.764-1.706,1.706v6.681h-0.047c-1.021,0-1.848,0.827-1.848,1.848v7.58
							c0,0.952,0.322,1.875,0.913,2.621c0.8,1.009,2.017,1.597,3.304,1.597h6.811c2.492,0,4.513-2.021,4.513-4.513v-1.919v-5.366
							v-1.833C569.799,349.907,569.157,349.094,568.27,349.005z"/>
						<path style="fill:#FFFFFF;" d="M567.881,365.166h-11.704c-0.599,0-1.085,0.486-1.085,1.085c0,0.599,0.486,1.085,1.085,1.085
							h11.704c0.599,0,1.085-0.486,1.085-1.085C568.966,365.651,568.48,365.166,567.881,365.166z"/>
					</g>
				</g>
				<g>
					<path style="fill:#FFFFFF;" d="M660.674,367.925h-62.996c-0.742,0-1.343,0.601-1.343,1.343s0.601,1.343,1.343,1.343h62.996
						c0.742,0,1.343-0.601,1.343-1.343S661.415,367.925,660.674,367.925z"/>
					<path style="fill:#FFFFFF;" d="M660.674,358.324h-62.996c-0.742,0-1.343,0.601-1.343,1.343c0,0.742,0.601,1.343,1.343,1.343
						h62.996c0.742,0,1.343-0.601,1.343-1.343C662.017,358.926,661.415,358.324,660.674,358.324z"/>
					<path style="fill:#FFFFFF;" d="M597.677,351.409h62.996c0.742,0,1.343-0.601,1.343-1.343s-0.601-1.343-1.343-1.343h-62.996
						c-0.742,0-1.343,0.601-1.343,1.343S596.936,351.409,597.677,351.409z"/>
					<path style="fill:#FFFFFF;" d="M597.677,341.808h41.28c0.742,0,1.343-0.601,1.343-1.343c0-0.742-0.601-1.343-1.343-1.343
						h-41.28c-0.742,0-1.343,0.601-1.343,1.343C596.334,341.207,596.936,341.808,597.677,341.808z"/>
				</g>
			</g>
			<g>
				<g>
					<path style="fill:#222733;" d="M579.334,417.016H546.95c-1.778,0-3.219-1.441-3.219-3.219v-32.384
						c0-1.778,1.441-3.219,3.219-3.219h32.384c1.778,0,3.219,1.441,3.219,3.219v32.384
						C582.554,415.575,581.112,417.016,579.334,417.016z"/>
					<path style="fill:#FFFFFF;" d="M563.142,389.848c-5.875,0-10.638,3.473-10.638,7.757c0,1.974,1.019,3.769,2.684,5.138
						l-0.424,1.61c-0.113,0.431,0.299,0.815,0.721,0.67l2.218-0.761c1.593,0.693,3.448,1.099,5.438,1.099
						c5.875,0,10.638-3.473,10.638-7.757C573.78,393.321,569.017,389.848,563.142,389.848z M557.713,398.956
						c-0.746,0-1.351-0.605-1.351-1.351s0.605-1.351,1.351-1.351s1.351,0.605,1.351,1.351S558.459,398.956,557.713,398.956z
						 M563.38,398.956c-0.746,0-1.351-0.605-1.351-1.351s0.605-1.351,1.351-1.351c0.746,0,1.351,0.605,1.351,1.351
						S564.126,398.956,563.38,398.956z M569.047,398.956c-0.746,0-1.351-0.605-1.351-1.351s0.605-1.351,1.351-1.351
						s1.351,0.605,1.351,1.351S569.793,398.956,569.047,398.956z"/>
				</g>
				<g>
					<path style="fill:#FFFFFF;" d="M660.674,410.663h-62.996c-0.742,0-1.343,0.601-1.343,1.343c0,0.742,0.601,1.343,1.343,1.343
						h62.996c0.742,0,1.343-0.601,1.343-1.343C662.017,411.264,661.415,410.663,660.674,410.663z"/>
					<path style="fill:#FFFFFF;" d="M660.674,401.062h-62.996c-0.742,0-1.343,0.601-1.343,1.343s0.601,1.343,1.343,1.343h62.996
						c0.742,0,1.343-0.601,1.343-1.343S661.415,401.062,660.674,401.062z"/>
					<path style="fill:#FFFFFF;" d="M597.677,394.147h62.996c0.742,0,1.343-0.601,1.343-1.343s-0.601-1.343-1.343-1.343h-62.996
						c-0.742,0-1.343,0.601-1.343,1.343S596.936,394.147,597.677,394.147z"/>
					<path style="fill:#FFFFFF;" d="M597.677,384.547h41.28c0.742,0,1.343-0.601,1.343-1.343s-0.601-1.343-1.343-1.343h-41.28
						c-0.742,0-1.343,0.601-1.343,1.343S596.936,384.547,597.677,384.547z"/>
				</g>
			</g>
		</g>
		<g>
			<circle style="fill:#E96C58;" cx="551.321" cy="229.314" r="6.324"/>
			<path style="fill:#4FB0C3;" d="M564.485,230.657h46.479c0.742,0,1.343-0.601,1.343-1.343s-0.601-1.343-1.343-1.343h-46.479
				c-0.742,0-1.343,0.601-1.343,1.343S563.744,230.657,564.485,230.657z"/>
		</g>
		<g>
			<g>
				<g>
					<text transform="matrix(1 0 0 1 543.7303 253.4232)" style="font-family:'MontserratAlternates-Black'; font-size:13.7461px;">Responsive</text>
				</g>
				<g>
					<text transform="matrix(1 0 0 1 543.7303 268.2855)" style="font-family:'JosefinSans-Regular'; font-size:11.5442px;">Web Design</text>
				</g>
			</g>
			<g>
				<g>
					<g>
						<path style="fill:#4FB0C3;" d="M650.164,268.021c-6.431,0-11.662-5.232-11.662-11.662c0-6.431,5.232-11.662,11.662-11.662
							c6.431,0,11.662,5.232,11.662,11.662C661.826,262.789,656.594,268.021,650.164,268.021z M650.164,245.848
							c-5.796,0-10.511,4.715-10.511,10.511c0,5.796,4.715,10.511,10.511,10.511c5.796,0,10.511-4.715,10.511-10.511
							C660.675,250.563,655.959,245.848,650.164,245.848z"/>
						<path style="fill:#4FB0C3;" d="M650.164,268.021c-3.29,0-5.868-5.123-5.868-11.662c0-6.54,2.577-11.662,5.868-11.662
							c3.29,0,5.868,5.123,5.868,11.662C656.032,262.898,653.454,268.021,650.164,268.021z M650.164,245.848
							c-2.557,0-4.716,4.813-4.716,10.511c0,5.697,2.16,10.511,4.716,10.511c2.557,0,4.716-4.814,4.716-10.511
							C654.88,250.661,652.72,245.848,650.164,245.848z"/>
						<rect x="639.077" y="255.783" style="fill:#4FB0C3;" width="22.173" height="1.151"/>
						<rect x="649.588" y="245.272" style="fill:#4FB0C3;" width="1.151" height="22.173"/>
						<path style="fill:#4FB0C3;" d="M650.226,250.822c-2.784,0-5.567-0.507-8.331-1.522l0.397-1.081
							c5.265,1.933,10.604,1.933,15.868,0l0.397,1.081C655.793,250.315,653.009,250.822,650.226,250.822z"/>
						<path style="fill:#4FB0C3;" d="M642.292,264.498l-0.397-1.081c5.528-2.029,11.134-2.029,16.662,0l-0.397,1.081
							C652.895,262.565,647.556,262.565,642.292,264.498z"/>
					</g>
				</g>
				<path style="fill:#FFFFFF;" d="M662.404,248.544c0,2.125-1.723,3.848-3.848,3.848c-2.125,0-3.848-1.723-3.848-3.848
					c0-2.125,1.723-3.848,3.848-3.848C660.682,244.696,662.404,246.419,662.404,248.544z"/>
				<path style="fill:#E96C58;" d="M660.662,248.544c0,1.163-0.943,2.106-2.106,2.106c-1.163,0-2.106-0.943-2.106-2.106
					c0-1.163,0.943-2.106,2.106-2.106C659.719,246.438,660.662,247.381,660.662,248.544z"/>
			</g>
		</g>
	</g>
	<g>
		<g>
			<path style="fill:#222733;" d="M267.439,184.818H59.114c-9.17,0-16.63,7.461-16.63,16.63v237.189
				c0,9.17,7.46,16.631,16.63,16.631h208.325c9.17,0,16.631-7.461,16.631-16.631V201.448
				C284.07,192.278,276.609,184.818,267.439,184.818z"/>
			<path style="fill:#FFFFFF;" d="M276.438,201.447v237.192c0,4.968-4.035,9.004-9.004,9.004H59.109
				c-4.958,0-9.004-4.036-9.004-9.004V201.447c0-4.968,4.045-9.004,9.004-9.004h208.325
				C272.403,192.443,276.438,196.478,276.438,201.447z"/>
			<g>
				<path style="fill:none;stroke:#222733;stroke-width:1.1315;stroke-miterlimit:10;" d="M163.85,436.062
					c0,1.246-1.01,2.256-2.256,2.256s-2.256-1.01-2.256-2.256c0-1.246,1.01-2.256,2.256-2.256S163.85,434.816,163.85,436.062z"/>
				
					<polyline style="fill:none;stroke:#222733;stroke-width:1.1315;stroke-linecap:round;stroke-linejoin:round;stroke-miterlimit:10;" points="
					200.194,439.253 197.003,436.062 200.194,432.871 				"/>
				<g>
					
						<line style="fill:none;stroke:#222733;stroke-width:1.1315;stroke-linecap:round;stroke-linejoin:round;stroke-miterlimit:10;" x1="120.764" y1="433.806" x2="126.185" y2="433.806"/>
					
						<line style="fill:none;stroke:#222733;stroke-width:1.1315;stroke-linecap:round;stroke-linejoin:round;stroke-miterlimit:10;" x1="120.764" y1="436.062" x2="124.336" y2="436.062"/>
					
						<line style="fill:none;stroke:#222733;stroke-width:1.1315;stroke-linecap:round;stroke-linejoin:round;stroke-miterlimit:10;" x1="120.764" y1="438.319" x2="126.185" y2="438.319"/>
				</g>
			</g>
			<rect x="53.966" y="223.877" style="fill:#4FB0C3;" width="218.613" height="82.64"/>
			<path style="fill:#222733;" d="M134.989,190.201v3.579c0,3.738,3.031,6.769,6.769,6.769h43.036c3.738,0,6.769-3.031,6.769-6.769
				v-3.579H134.989z"/>
		</g>
		<g>
			<g>
				<g>
					<path style="fill:#E96C58;" d="M115.777,327.337H58.641c-2.582,0-4.676,2.094-4.676,4.676v81.036
						c0,2.582,2.093,4.676,4.676,4.676h57.136c2.582,0,4.676-2.093,4.676-4.676v-81.036
						C120.453,329.431,118.36,327.337,115.777,327.337z"/>
					<path style="fill:#39848E;" d="M191.84,327.337h-57.136c-2.582,0-4.676,2.094-4.676,4.676v81.036
						c0,2.582,2.093,4.676,4.676,4.676h57.136c2.582,0,4.676-2.093,4.676-4.676v-81.036
						C196.516,329.431,194.422,327.337,191.84,327.337z"/>
					<path style="fill:#222733;" d="M267.902,327.337h-57.136c-2.582,0-4.676,2.094-4.676,4.676v81.036
						c0,2.582,2.093,4.676,4.676,4.676h57.136c2.582,0,4.676-2.093,4.676-4.676v-81.036
						C272.578,329.431,270.485,327.337,267.902,327.337z"/>
				</g>
				<g>
					<path style="fill:#FFFFFF;" d="M90.945,348.027c-0.555-1.044-1.339-1.927-2.269-2.61l0.242-2.451l-3.244-1.125l-1.325,2.071
						c-0.57-0.019-1.151,0.018-1.735,0.13c-0.584,0.112-1.137,0.293-1.66,0.522l-1.998-1.432l-2.596,2.247l1.133,2.187
						c-0.611,0.978-1.012,2.089-1.14,3.265l-2.233,1.012l0.648,3.372l2.449,0.112c0.555,1.044,1.339,1.927,2.269,2.609l-0.242,2.451
						l3.244,1.125l1.325-2.071c0.57,0.019,1.151-0.018,1.735-0.13c0.584-0.112,1.137-0.293,1.66-0.522l1.998,1.432l2.596-2.247
						l-1.133-2.187c0.611-0.978,1.012-2.089,1.14-3.265l2.234-1.012l-0.648-3.372L90.945,348.027z M84.985,356.384
						c-2.6,0.5-5.113-1.203-5.612-3.803c-0.5-2.6,1.203-5.113,3.803-5.612c2.6-0.5,5.113,1.203,5.612,3.803
						C89.288,353.372,87.585,355.885,84.985,356.384z"/>
					<path style="fill:#FFFFFF;" d="M83.622,349.291c-1.318,0.253-2.18,1.526-1.927,2.844c0.253,1.318,1.526,2.18,2.844,1.927
						c1.318-0.253,2.18-1.526,1.927-2.844C86.213,349.901,84.94,349.038,83.622,349.291z"/>
					<path style="fill:#FFFFFF;" d="M99.101,341.681c-0.039-0.63-0.213-1.252-0.529-1.816l0.673-1.16l-1.359-1.296l-1.126,0.728
						c-0.579-0.289-1.208-0.433-1.839-0.441l-0.671-1.168l-1.802,0.53l0.068,1.343c-0.26,0.173-0.507,0.373-0.731,0.609
						c-0.225,0.236-0.413,0.492-0.573,0.76l-1.345-0.003l-0.442,1.825l1.199,0.614c0.039,0.63,0.213,1.252,0.529,1.816l-0.673,1.16
						l1.359,1.295l1.126-0.728c0.579,0.289,1.208,0.433,1.839,0.441l0.671,1.168l1.802-0.53l-0.068-1.343
						c0.26-0.173,0.507-0.374,0.731-0.609c0.224-0.235,0.413-0.491,0.573-0.76l1.345,0.003l0.442-1.825L99.101,341.681z
						 M96.76,343.752c-0.999,1.048-2.659,1.088-3.707,0.09c-1.048-0.999-1.088-2.659-0.09-3.707
						c0.999-1.048,2.659-1.088,3.707-0.089C97.719,341.044,97.759,342.704,96.76,343.752z"/>
					<path style="fill:#FFFFFF;" d="M93.9,341.027c-0.506,0.531-0.486,1.372,0.045,1.878c0.531,0.506,1.372,0.486,1.879-0.045
						c0.506-0.531,0.486-1.372-0.045-1.879C95.247,340.475,94.406,340.496,93.9,341.027z"/>
				</g>
				<g>
					<path style="fill:#FFFFFF;" d="M169.582,340.954c-1.032-0.103-1.903,0.704-1.903,1.716v-0.746c0-0.902-0.649-1.724-1.547-1.814
						c-1.032-0.103-1.903,0.705-1.903,1.716v-0.315c0-0.902-0.649-1.724-1.547-1.814c-1.032-0.103-1.903,0.705-1.903,1.716v-5.414
						c0-0.953-0.772-1.725-1.725-1.725l0,0c-0.953,0-1.725,0.772-1.725,1.725v6.755h-0.048c-1.032,0-1.868,0.837-1.868,1.868v7.665
						c0,0.962,0.325,1.896,0.923,2.65c0.809,1.02,2.039,1.615,3.341,1.615h6.887c2.52,0,4.563-2.043,4.563-4.563v-1.94v-5.426
						v-1.854C171.129,341.866,170.48,341.044,169.582,340.954z"/>
					<path style="fill:#FFFFFF;" d="M169.189,357.296h-11.835c-0.606,0-1.097,0.491-1.097,1.097s0.491,1.097,1.097,1.097h11.835
						c0.606,0,1.097-0.491,1.097-1.097S169.795,357.296,169.189,357.296z"/>
				</g>
				<path style="fill:#FFFFFF;" d="M241.035,338.936c-5.941,0-10.756,3.512-10.756,7.843c0,1.996,1.031,3.811,2.714,5.195
					l-0.428,1.628c-0.115,0.436,0.303,0.824,0.729,0.678l2.243-0.769c1.611,0.701,3.487,1.111,5.499,1.111
					c5.941,0,10.756-3.512,10.756-7.843S246.975,338.936,241.035,338.936z M235.545,348.145c-0.754,0-1.366-0.612-1.366-1.366
					s0.612-1.366,1.366-1.366c0.754,0,1.366,0.612,1.366,1.366S236.299,348.145,235.545,348.145z M241.275,348.145
					c-0.754,0-1.366-0.612-1.366-1.366s0.612-1.366,1.366-1.366s1.366,0.612,1.366,1.366S242.029,348.145,241.275,348.145z
					 M247.005,348.145c-0.754,0-1.366-0.612-1.366-1.366s0.612-1.366,1.366-1.366c0.754,0,1.366,0.612,1.366,1.366
					S247.759,348.145,247.005,348.145z"/>
				<g>
					<path d="M69.952,375.392h34.515c0.75,0,1.358-0.608,1.358-1.358s-0.608-1.358-1.358-1.358H69.952
						c-0.75,0-1.358,0.608-1.358,1.358S69.202,375.392,69.952,375.392z"/>
					<path style="fill:#FFFFFF;" d="M63.636,382.495h48.812c0.75,0,1.358-0.608,1.358-1.358c0-0.75-0.608-1.358-1.358-1.358H63.636
						c-0.75,0-1.358,0.608-1.358,1.358C62.278,381.887,62.886,382.495,63.636,382.495z"/>
					<path style="fill:#FFFFFF;" d="M112.448,386.882H63.636c-0.75,0-1.358,0.608-1.358,1.358s0.608,1.358,1.358,1.358h48.812
						c0.75,0,1.358-0.608,1.358-1.358S113.198,386.882,112.448,386.882z"/>
					<path style="fill:#FFFFFF;" d="M112.448,393.985H63.636c-0.75,0-1.358,0.608-1.358,1.358c0,0.75,0.608,1.358,1.358,1.358
						h48.812c0.75,0,1.358-0.608,1.358-1.358C113.806,394.593,113.198,393.985,112.448,393.985z"/>
					<path style="fill:#FFFFFF;" d="M112.448,401.088H63.636c-0.75,0-1.358,0.608-1.358,1.358c0,0.75,0.608,1.358,1.358,1.358
						h48.812c0.75,0,1.358-0.608,1.358-1.358C113.806,401.696,113.198,401.088,112.448,401.088z"/>
				</g>
				<g>
					<path d="M145.182,375.392h34.515c0.75,0,1.358-0.608,1.358-1.358s-0.608-1.358-1.358-1.358h-34.515
						c-0.75,0-1.358,0.608-1.358,1.358S144.432,375.392,145.182,375.392z"/>
					<path style="fill:#FFFFFF;" d="M138.866,382.495h48.812c0.75,0,1.358-0.608,1.358-1.358c0-0.75-0.608-1.358-1.358-1.358
						h-48.812c-0.75,0-1.358,0.608-1.358,1.358C137.508,381.887,138.116,382.495,138.866,382.495z"/>
					<path style="fill:#FFFFFF;" d="M187.678,386.882h-48.812c-0.75,0-1.358,0.608-1.358,1.358s0.608,1.358,1.358,1.358h48.812
						c0.75,0,1.358-0.608,1.358-1.358S188.428,386.882,187.678,386.882z"/>
					<path style="fill:#FFFFFF;" d="M187.678,393.985h-48.812c-0.75,0-1.358,0.608-1.358,1.358c0,0.75,0.608,1.358,1.358,1.358
						h48.812c0.75,0,1.358-0.608,1.358-1.358C189.036,394.593,188.428,393.985,187.678,393.985z"/>
					<path style="fill:#FFFFFF;" d="M187.678,401.088h-48.812c-0.75,0-1.358,0.608-1.358,1.358c0,0.75,0.608,1.358,1.358,1.358
						h48.812c0.75,0,1.358-0.608,1.358-1.358C189.036,401.696,188.428,401.088,187.678,401.088z"/>
				</g>
				<g>
					<path style="fill:#E96C58;" d="M221.818,375.392h34.515c0.75,0,1.358-0.608,1.358-1.358s-0.608-1.358-1.358-1.358h-34.515
						c-0.75,0-1.358,0.608-1.358,1.358S221.069,375.392,221.818,375.392z"/>
					<path style="fill:#FFFFFF;" d="M215.503,382.495h48.812c0.75,0,1.358-0.608,1.358-1.358c0-0.75-0.608-1.358-1.358-1.358
						h-48.812c-0.75,0-1.358,0.608-1.358,1.358C214.145,381.887,214.753,382.495,215.503,382.495z"/>
					<path style="fill:#FFFFFF;" d="M264.315,386.882h-48.812c-0.75,0-1.358,0.608-1.358,1.358s0.608,1.358,1.358,1.358h48.812
						c0.75,0,1.358-0.608,1.358-1.358S265.065,386.882,264.315,386.882z"/>
					<path style="fill:#FFFFFF;" d="M264.315,393.985h-48.812c-0.75,0-1.358,0.608-1.358,1.358c0,0.75,0.608,1.358,1.358,1.358
						h48.812c0.75,0,1.358-0.608,1.358-1.358C265.673,394.593,265.065,393.985,264.315,393.985z"/>
					<path style="fill:#FFFFFF;" d="M264.315,401.088h-48.812c-0.75,0-1.358,0.608-1.358,1.358c0,0.75,0.608,1.358,1.358,1.358
						h48.812c0.75,0,1.358-0.608,1.358-1.358C265.673,401.696,265.065,401.088,264.315,401.088z"/>
				</g>
			</g>
			<g>
				<g>
					<g>
						
							<text transform="matrix(1 0 0 1 70.69 260.4564)" style="fill:#FFFFFF; font-family:'MontserratAlternates-Black'; font-size:21.2547px;">Responsive</text>
					</g>
					<g>
						
							<text transform="matrix(1 0 0 1 70.69 283.4339)" style="fill:#222733; font-family:'JosefinSans-Regular'; font-size:17.85px;">Web Design</text>
					</g>
				</g>
				<g>
					<g>
						<g>
							<path style="fill:#FFFFFF;" d="M235.26,283.025c-9.943,0-18.033-8.09-18.033-18.033c0-9.943,8.089-18.033,18.033-18.033
								c9.943,0,18.033,8.089,18.033,18.033C253.293,274.936,245.203,283.025,235.26,283.025z M235.26,248.74
								c-8.961,0-16.252,7.291-16.252,16.252c0,8.962,7.291,16.252,16.252,16.252c8.962,0,16.252-7.291,16.252-16.252
								C251.512,256.031,244.222,248.74,235.26,248.74z"/>
							<path style="fill:#FFFFFF;" d="M235.26,283.025c-5.088,0-9.073-7.921-9.073-18.033c0-10.112,3.985-18.033,9.073-18.033
								c5.088,0,9.073,7.921,9.073,18.033C244.333,275.104,240.348,283.025,235.26,283.025z M235.26,248.74
								c-3.953,0-7.292,7.443-7.292,16.252c0,8.809,3.339,16.252,7.292,16.252c3.953,0,7.293-7.443,7.293-16.252
								C242.553,256.183,239.213,248.74,235.26,248.74z"/>
							<rect x="218.118" y="264.102" style="fill:#FFFFFF;" width="34.285" height="1.781"/>
							<rect x="234.37" y="247.85" style="fill:#FFFFFF;" width="1.78" height="34.285"/>
							<path style="fill:#FFFFFF;" d="M235.356,256.432c-4.304,0-8.608-0.785-12.882-2.354l0.614-1.671
								c8.141,2.989,16.396,2.989,24.536,0l0.614,1.671C243.964,255.648,239.66,256.432,235.356,256.432z"/>
							<path style="fill:#FFFFFF;" d="M223.088,277.578l-0.614-1.672c8.548-3.138,17.216-3.138,25.763,0l-0.614,1.671
								C239.483,274.589,231.228,274.589,223.088,277.578z"/>
						</g>
					</g>
					<path style="fill:#4FB0C3;" d="M254.187,252.91c0,3.286-2.664,5.95-5.95,5.95c-3.286,0-5.95-2.664-5.95-5.95
						c0-3.286,2.664-5.95,5.95-5.95C251.523,246.96,254.187,249.624,254.187,252.91z"/>
					<path style="fill:#E96C58;" d="M251.493,252.91c0,1.798-1.458,3.256-3.256,3.256s-3.256-1.458-3.256-3.256
						c0-1.798,1.458-3.256,3.256-3.256S251.493,251.112,251.493,252.91z"/>
				</g>
			</g>
			<g>
				<circle style="fill:#E96C58;" cx="77.086" cy="211.761" r="6.395"/>
				<path style="fill:#4FB0C3;" d="M90.397,213.119h46.998c0.75,0,1.358-0.608,1.358-1.358s-0.608-1.358-1.358-1.358H90.397
					c-0.75,0-1.358,0.608-1.358,1.358S89.647,213.119,90.397,213.119z"/>
			</g>
		</g>
	</g>
	<g>
		<g>
			<path style="fill:#E96C58;" d="M691.042,378.631v51.006c0,14.129-11.453,25.582-25.582,25.582h-33.195
				c-14.129,0-25.582-11.453-25.582-25.582v-51.006H691.042z"/>
			<path style="fill:#E96C58;" d="M685.361,432.945h20.945c6.611,0,11.989-5.379,11.989-11.989v-23.497
				c0-6.611-5.378-11.989-11.989-11.989h-19.501v9.052h19.501c1.62,0,2.937,1.318,2.937,2.937v23.497
				c0,1.619-1.317,2.937-2.937,2.937h-20.945V432.945z"/>
			
				<line style="fill:none;stroke:#222733;stroke-width:0.5658;stroke-linecap:round;stroke-linejoin:round;stroke-miterlimit:10;" x1="690.946" y1="386.432" x2="690.946" y2="427.937"/>
		</g>
		<g>
			<rect x="251.058" y="372.354" style="fill:#F5B2A6;" width="131.098" height="82.865"/>
			
				<polyline style="fill:none;stroke:#222733;stroke-width:0.7504;stroke-linecap:round;stroke-linejoin:round;stroke-miterlimit:10;" points="
				253.978,376.115 316.608,424.188 378.861,376.115 			"/>
			
				<line style="fill:none;stroke:#222733;stroke-width:0.7504;stroke-linecap:round;stroke-linejoin:round;stroke-miterlimit:10;" x1="297.007" y1="409.15" x2="255.389" y2="450.843"/>
			
				<line style="fill:none;stroke:#222733;stroke-width:0.7504;stroke-linecap:round;stroke-linejoin:round;stroke-miterlimit:10;" x1="377.827" y1="450.843" x2="336.164" y2="409.09"/>
		</g>
	</g>
</g>
</svg>
