<?xml version="1.0" encoding="utf-8"?>
<!-- Generator: Adobe Illustrator 27.5.0, SVG Export Plug-In . SVG Version: 6.00 Build 0)  -->
<svg version="1.1" xmlns="http://www.w3.org/2000/svg" xmlns:xlink="http://www.w3.org/1999/xlink" x="0px" y="0px"
	 viewBox="0 0 750 500" style="enable-background:new 0 0 750 500;" xml:space="preserve">
<g id="BACKGROUND">
	<rect x="125" style="fill-rule:evenodd;clip-rule:evenodd;fill:#FFFFFF;" width="500" height="500"/>
	<rect style="fill-rule:evenodd;clip-rule:evenodd;fill:#FFFFFF;" width="750" height="500"/>
</g>
<g id="OBJECTS">
	<g>
		<g>
			<g>
				<path style="fill-rule:evenodd;clip-rule:evenodd;fill:#0E2D34;" d="M240.485,196.975c-16.097-1.564-39.004-6.508-61.892-20.7
					c-32.432-20.11,33.29-16.781,87.558-2.357l-19.353,19.571L240.485,196.975z"/>
				<g>
					<path style="fill-rule:evenodd;clip-rule:evenodd;fill:#1B7154;" d="M184.066,158.149c11.144,9.351,39.885,27.578,67.88,47.156
						l29.924,9.561l4.595-18.237c-22.524-31.59-51.948-63.545-76.845-79.215C165.939,89.923,144.958,125.335,184.066,158.149z"/>
					<path style="fill-rule:evenodd;clip-rule:evenodd;fill:#0E2D34;" d="M282.097,213.964
						c-36.98-51.555-103.201-90.998-103.443-91.143c-0.473-0.284-1.059-0.112-1.31,0.383c-0.251,0.496-0.07,1.128,0.402,1.413
						c0.239,0.144,65.401,38.959,102.175,89.627l1.949,0.623L282.097,213.964z"/>
				</g>
				<g>
					<path style="fill-rule:evenodd;clip-rule:evenodd;fill:#A6C86B;" d="M245.95,85.475c5.954,14.008,15.488,47.174,26.538,81.423
						c-3.55,14.359-11.966,26.928-23.439,35.751c-22.855-31.667-43.342-68.374-51.518-97.651
						C181.526,47.69,223.28,32.145,245.95,85.475z"/>
					<path style="fill-rule:evenodd;clip-rule:evenodd;fill:#5F9850;" d="M261.014,190.679
						c-32.581-53.711-49.44-119.896-49.511-120.172c-0.159-0.617,0.175-1.254,0.749-1.422c0.572-0.168,1.167,0.196,1.326,0.813
						c0.07,0.273,16.739,65.691,48.827,118.898C261.952,189.433,261.49,190.061,261.014,190.679z"/>
				</g>
				<g>
					<path style="fill-rule:evenodd;clip-rule:evenodd;fill:#1B7154;" d="M243.208,86.128c1.004,14.513,7.833,47.854,13.172,81.596
						l13.89,28.177l16.317-9.352c7.105-38.142,9.684-81.503,3.682-110.302C279.739,25.722,239.685,35.199,243.208,86.128z"/>
					<path style="fill-rule:evenodd;clip-rule:evenodd;fill:#0E2D34;" d="M271.077,195.439
						c11.442-62.406-6.132-137.455-6.195-137.729c-0.123-0.538-0.654-0.841-1.185-0.678c-0.531,0.163-0.861,0.732-0.737,1.27
						c0.063,0.271,17.353,74.121,6.405,135.763l0.905,1.835L271.077,195.439z"/>
				</g>
			</g>
			<path style="fill-rule:evenodd;clip-rule:evenodd;fill:#E1E8F6;" d="M160.259,345.512h-55.623h-1.446
				c-30.715,0-55.845,25.131-55.845,55.845l0,0c0,30.715,25.13,55.845,55.845,55.845h163.033h28.079h308.514
				c49.734,0,90.428-40.692,90.428-90.428v-0.001c0-49.735-40.692-90.427-90.428-90.428l0,0c-21.029,0-38.235-17.207-38.235-38.235
				l0,0c0-21.029,17.206-38.235,38.235-38.235h46.016c21.863,0,39.753-17.889,39.753-39.752l0,0
				c0-21.864-17.89-39.752-39.753-39.752H541.256c-8.513,0-15.476-6.965-15.476-15.477v-0.001c0-8.511,6.963-15.475,15.476-15.475
				h10.257c5.875,0,10.681-4.807,10.681-10.681v-0.001c0-5.874-4.806-10.68-10.681-10.68h-38.443c0,0,11.325,0-2.85,0
				c-14.177,0-15.755,16.746-51.561,16.746c-55.353,0-84.186,0-139.538,0c-7.665,0-13.937,6.273-13.937,13.936v0.001
				c0,7.665,6.272,13.937,13.937,13.937h13.385c11.107,0,20.194,9.09,20.194,20.194v0.001c0,11.105-9.087,20.194-20.194,20.194
				h-20.142c-54.394,0-62.077,14.215-71.603,42.487c-9.526,28.273-59.004,30.552-59.004,30.552h-30.603
				c-16.738,0-30.432,13.695-30.432,30.433l0,0c0,16.737,13.695,30.433,30.432,30.433h9.106c16.099,0,29.272,13.173,29.272,29.272
				l0,0C189.531,332.341,176.358,345.512,160.259,345.512L160.259,345.512z M77.365,286.97c-16.808,0-30.433-13.625-30.433-30.433
				c0-16.807,13.625-30.433,30.433-30.433c16.808,0,30.433,13.625,30.433,30.433C107.798,273.345,94.173,286.97,77.365,286.97
				L77.365,286.97z M581.486,89.419c-5.898,0-10.682-4.783-10.682-10.681c0-5.899,4.783-10.681,10.682-10.681
				c5.898,0,10.681,4.782,10.681,10.681C592.167,84.636,587.385,89.419,581.486,89.419z"/>
			<g>
				<g>
					<path style="fill-rule:evenodd;clip-rule:evenodd;fill:#1B7154;" d="M182.167,431.466
						c10.724,5.971,32.452,15.072,57.423,25.735h74.648l0.177-3.119c-34.449-32.827-77.292-64.496-110.91-77.601
						C144.526,353.493,127.462,401.005,182.167,431.466z"/>
					<path style="fill-rule:evenodd;clip-rule:evenodd;fill:#0E2D34;" d="M291.051,457.201
						c-54.921-42.18-123.304-66.927-123.588-67.032c-0.635-0.232-1.303,0.11-1.49,0.766c-0.187,0.655,0.177,1.375,0.812,1.607
						c0.278,0.103,66.284,23.989,120.347,64.659H291.051z"/>
				</g>
				<path style="fill-rule:evenodd;clip-rule:evenodd;fill:#0E2D34;" d="M155.929,457.201c7.204-9.749,39.128-13.792,85.303,0
					h-22.265H155.929z"/>
				<g>
					<path style="fill-rule:evenodd;clip-rule:evenodd;fill:#4A9075;" d="M235.993,443.167
						c-12.259-10.303-24.85-23.609-33.286-39.596c-21.764-41.244-28.529-54.239-39.139-57.722
						c-8.905-2.922,65.713-35.25,138.701,36.536c2.094,2.059,56.478,72.583,58.567,74.816c-10.373,0-36.46-0.001-73.705-0.001
						L235.993,443.167z"/>
					<path style="fill-rule:evenodd;clip-rule:evenodd;fill:#1B7154;" d="M174.04,339.355
						c40.407,14.792,80.763,44.685,114.653,75.236c2.242,2.021,28.108,25.383,30.292,27.405c-0.614,0.826-1.254,1.646-1.919,2.465
						c-2.149-1.994-27.981-25.328-30.188-27.319c-34.802-31.412-76.436-62.1-117.798-76.139
						C170.511,340.443,172.171,339.886,174.04,339.355z"/>
				</g>
				<g>
					<path style="fill-rule:evenodd;clip-rule:evenodd;fill:#A6C86B;" d="M249.608,271.542c12.66,12.69,35.365,41.16,61.345,72.893
						c0.005,0.008,64.542,73.334,42.913,112.767c-47.318-30.024-132.131-98.818-158.659-133.383
						C142.858,255.606,190.465,212.255,249.608,271.542z"/>
					<path style="fill-rule:evenodd;clip-rule:evenodd;fill:#5F9850;" d="M357.949,444.213
						c-58.026-96.496-146.985-178.041-147.36-178.388c-0.849-0.785-2.156-0.795-2.916-0.023c-0.76,0.771-0.686,2.034,0.163,2.819
						c0.37,0.343,87.886,80.57,145.521,175.576C354.876,444.237,356.405,444.249,357.949,444.213z"/>
				</g>
				<g>
					<path style="fill-rule:evenodd;clip-rule:evenodd;fill:#A6C86B;" d="M288.865,454.9c-8.999-10.735-20.79-22.734-34.876-32.509
						c-34.207-23.735-68.197-10.415-71.443,2.43c-1.325,5.24-0.148,17.603,5.882,32.38h30.541h66.434
						C286.589,456.441,287.743,455.673,288.865,454.9z"/>
					<path style="fill-rule:evenodd;clip-rule:evenodd;fill:#5F9850;" d="M263.712,457.201c-3.04-7.61-8.52-20.664-12.994-27.735
						c-0.383-0.606-0.997-0.828-1.373-0.497c-0.375,0.331-0.37,1.09,0.012,1.695c4.219,6.67,9.421,18.989,12.449,26.537H263.712
						L263.712,457.201z M259.516,457.201h-7.856c-2.546-1.519-5.15-3.014-7.811-4.476c-1.118,0.898-2.934,2.413-5.164,4.476h-3.692
						c2.6-2.536,4.843-4.497,6.412-5.803c-9.167-4.904-18.979-9.401-29.365-13.177c-2.719,1.547-8.409,5.249-12.496,11.068
						c-0.302,0.432-0.906,0.346-1.347-0.191c-0.442-0.538-0.555-1.324-0.253-1.756c3.391-4.828,7.845-8.249,10.931-10.245
						c-6.643-2.294-13.51-4.294-20.588-5.904c-1.066-0.24-2.033-1.539-2.159-2.899c-0.127-1.361,0.634-2.271,1.7-2.028
						c14.534,3.307,28.208,8.21,40.877,14.025c-7.491-15.346-14.524-24.683-14.546-24.713c-0.423-0.565-0.497-1.346-0.167-1.744
						c0.331-0.398,0.941-0.262,1.364,0.303c0.024,0.032,7.86,10.44,15.876,27.329C241.354,446.26,250.808,451.623,259.516,457.201z"
						/>
				</g>
			</g>
			<g>
				<rect x="393.521" y="401.336" style="fill-rule:evenodd;clip-rule:evenodd;fill:#00000F;" width="127.123" height="46.587"/>
				<path style="fill-rule:evenodd;clip-rule:evenodd;fill:#00000F;" d="M247.004,116.099h439.801c3.542,0,6.439,2.897,6.439,6.439
					v279.301c0,3.541-2.897,6.438-6.439,6.438H247.004c-3.54,0-6.438-2.896-6.438-6.438V122.538
					C240.566,118.996,243.463,116.099,247.004,116.099z"/>
				<path style="fill-rule:evenodd;clip-rule:evenodd;fill:#101537;" d="M237.183,116.099h439.801c3.542,0,6.438,2.897,6.438,6.439
					v279.301c0,3.541-2.896,6.438-6.438,6.438H237.183c-3.541,0-6.439-2.896-6.439-6.438V122.538
					C230.744,118.996,233.642,116.099,237.183,116.099z"/>
				<path style="fill-rule:evenodd;clip-rule:evenodd;fill:#3B405F;" d="M244.215,122.409h425.736c2.303,0,4.193,1.892,4.193,4.194
					V374.32c0,1.439-1.174,2.612-2.613,2.612H242.635c-1.44,0-2.613-1.173-2.613-2.612V126.603
					C240.021,124.3,241.912,122.409,244.215,122.409z"/>
				<rect x="249.204" y="132.766" style="fill-rule:evenodd;clip-rule:evenodd;fill:#FFFFFF;" width="415.759" height="233.811"/>
				<path style="fill-rule:evenodd;clip-rule:evenodd;fill:#FCE4D6;" d="M332.971,318.854h96.174c2.559,0,4.651,2.094,4.651,4.652
					v25.637c0,2.558-2.093,4.651-4.651,4.651h-96.174c-2.558,0-4.652-2.094-4.652-4.651v-25.637
					C328.319,320.948,330.413,318.854,332.971,318.854z"/>
				<path style="fill-rule:evenodd;clip-rule:evenodd;fill:#E4E1E8;" d="M329.571,285.439h102.973c0.689,0,1.252,0.564,1.252,1.253
					l0,0c0,0.689-0.564,1.252-1.252,1.252H329.571c-0.689,0-1.253-0.563-1.253-1.252l0,0
					C328.319,286.002,328.882,285.439,329.571,285.439z"/>
				<path style="fill-rule:evenodd;clip-rule:evenodd;fill:#E4E1E8;" d="M329.571,293.23h102.973c0.689,0,1.252,0.564,1.252,1.253
					l0,0c0,0.69-0.564,1.252-1.252,1.252H329.571c-0.689,0-1.253-0.563-1.253-1.252l0,0
					C328.319,293.795,328.882,293.23,329.571,293.23z"/>
				<path style="fill-rule:evenodd;clip-rule:evenodd;fill:#E4E1E8;" d="M329.571,301.024h102.973c0.689,0,1.252,0.563,1.252,1.252
					l0,0c0,0.688-0.564,1.253-1.252,1.253H329.571c-0.689,0-1.253-0.564-1.253-1.253l0,0
					C328.319,301.588,328.882,301.024,329.571,301.024z"/>
				<path style="fill-rule:evenodd;clip-rule:evenodd;fill:#E4E1E8;" d="M329.571,308.816h102.973c0.689,0,1.252,0.564,1.252,1.252
					l0,0c0,0.689-0.564,1.252-1.252,1.252H329.571c-0.689,0-1.253-0.563-1.253-1.252l0,0
					C328.319,309.38,328.882,308.816,329.571,308.816z"/>
				<path style="fill-rule:evenodd;clip-rule:evenodd;fill:#C0CDEA;" d="M330.328,263.813h101.459c1.105,0,2.009,0.904,2.009,2.009
					v5.116c0,1.105-0.904,2.011-2.009,2.011H330.328c-1.105,0-2.009-0.905-2.009-2.011v-5.116
					C328.319,264.717,329.223,263.813,330.328,263.813z"/>
				<path style="fill-rule:evenodd;clip-rule:evenodd;fill:#E4E1E8;" d="M329.571,247.456h102.973c0.689,0,1.252,0.563,1.252,1.251
					l0,0c0,0.689-0.564,1.253-1.252,1.253H329.571c-0.689,0-1.253-0.564-1.253-1.253l0,0
					C328.319,248.019,328.882,247.456,329.571,247.456z"/>
				<path style="fill-rule:evenodd;clip-rule:evenodd;fill:#E4E1E8;" d="M329.571,255.248h102.973c0.689,0,1.252,0.563,1.252,1.253
					l0,0c0,0.689-0.564,1.252-1.252,1.252H329.571c-0.689,0-1.253-0.563-1.253-1.252l0,0
					C328.319,255.811,328.882,255.248,329.571,255.248z"/>
				<path style="fill-rule:evenodd;clip-rule:evenodd;fill:#E4E1E8;" d="M329.571,278.626h102.973c0.689,0,1.252,0.564,1.252,1.252
					l0,0c0,0.689-0.564,1.253-1.252,1.253H329.571c-0.689,0-1.253-0.564-1.253-1.253l0,0
					C328.319,279.19,328.882,278.626,329.571,278.626z"/>
				<path style="fill-rule:evenodd;clip-rule:evenodd;fill:#FCE4D6;" d="M330.328,233.623h101.459c1.105,0,2.009,0.904,2.009,2.009
					v5.115c0,1.105-0.904,2.01-2.009,2.01H330.328c-1.105,0-2.009-0.905-2.009-2.01v-5.115
					C328.319,234.526,329.223,233.623,330.328,233.623z"/>
				<path style="fill-rule:evenodd;clip-rule:evenodd;fill:#FCE4D6;" d="M496.398,233.838h72.138c3.184,0,5.789,2.605,5.789,5.789
					v67.684c0,3.184-2.606,5.789-5.789,5.789h-72.138c-3.184,0-5.789-2.605-5.789-5.789v-67.684
					C490.609,236.444,493.214,233.838,496.398,233.838z"/>
				<path style="fill-rule:evenodd;clip-rule:evenodd;fill:#E4E1E8;" d="M585.313,286.262h64.29c0.688,0,1.252,0.564,1.252,1.252
					l0,0c0,0.689-0.563,1.252-1.252,1.252h-64.29c-0.688,0-1.253-0.563-1.253-1.252l0,0
					C584.06,286.825,584.625,286.262,585.313,286.262z"/>
				<g>
					<path style="fill-rule:evenodd;clip-rule:evenodd;fill:#3A3938;" d="M521.851,259.472c-0.019,0.385-0.348,0.683-0.733,0.663
						c-0.386-0.021-0.683-0.349-0.664-0.735c0.558-10.856,3.057-17.076,6.027-19.661c1.326-1.154,2.758-1.62,4.177-1.477
						c1.396,0.14,2.75,0.873,3.951,2.118c2.989,3.099,5.111,9.53,4.477,17.919c-0.028,0.386-0.364,0.676-0.751,0.647
						c-0.386-0.029-0.675-0.366-0.646-0.752c0.602-7.965-1.34-13.994-4.088-16.843c-0.968-1.004-2.023-1.591-3.08-1.697
						c-1.032-0.104-2.1,0.256-3.117,1.142C524.683,243.162,522.387,249.047,521.851,259.472z"/>
					<path style="fill-rule:evenodd;clip-rule:evenodd;fill:#B83470;" d="M514.171,258.159c0,0-0.815,0.057-1.011,1.235
						c-0.196,1.179-2.919,42.943-2.919,42.943s-0.59,2.301,3.144,2.301c11.209,0,22.418,0,33.627,0c3.732,0,3.144-2.301,3.144-2.301
						s-2.723-41.765-2.919-42.943c-0.196-1.179-1.011-1.235-1.011-1.235C535.54,258.159,524.855,258.159,514.171,258.159z"/>
					<path style="fill-rule:evenodd;clip-rule:evenodd;fill:#E94D90;" d="M518.709,258.159c0,0-0.815,0.057-1.011,1.235
						c-0.197,1.179-2.92,42.943-2.92,42.943s-0.589,2.301,3.144,2.301c11.21,0,22.419,0,33.628,0c3.732,0,3.144-2.301,3.144-2.301
						s-2.723-41.765-2.92-42.943c-0.195-1.179-1.011-1.235-1.011-1.235C540.078,258.159,529.394,258.159,518.709,258.159z"/>
					<path style="fill-rule:evenodd;clip-rule:evenodd;fill:#3A3938;" d="M546.104,260.624c0.007,0.353-0.273,0.645-0.626,0.651
						c-0.353,0.007-0.645-0.273-0.65-0.625c-0.213-9.598-2.024-15.02-4.321-17.24c-0.881-0.853-1.827-1.197-2.76-1.099
						c-0.967,0.102-1.957,0.672-2.886,1.641c-2.73,2.846-4.816,8.946-4.46,16.821c0.015,0.352-0.259,0.65-0.611,0.665
						c-0.352,0.016-0.649-0.258-0.666-0.611c-0.373-8.243,1.878-14.698,4.815-17.761c1.14-1.189,2.399-1.892,3.677-2.026
						c1.311-0.139,2.607,0.316,3.778,1.45C543.906,244.919,545.883,250.646,546.104,260.624z"/>
				</g>
				<path style="fill-rule:evenodd;clip-rule:evenodd;fill:#E4E1E8;" d="M585.313,294.055h64.29c0.688,0,1.252,0.564,1.252,1.252
					l0,0c0,0.688-0.563,1.253-1.252,1.253h-64.29c-0.688,0-1.253-0.565-1.253-1.253l0,0
					C584.06,294.618,584.625,294.055,585.313,294.055z"/>
				<path style="fill-rule:evenodd;clip-rule:evenodd;fill:#E4E1E8;" d="M585.313,301.848h64.29c0.688,0,1.252,0.563,1.252,1.252
					l0,0c0,0.688-0.563,1.251-1.252,1.251h-64.29c-0.688,0-1.253-0.563-1.253-1.251l0,0
					C584.06,302.41,584.625,301.848,585.313,301.848z"/>
				<path style="fill-rule:evenodd;clip-rule:evenodd;fill:#E4E1E8;" d="M585.313,309.639h64.29c0.688,0,1.252,0.564,1.252,1.253
					l0,0c0,0.689-0.563,1.253-1.252,1.253h-64.29c-0.688,0-1.253-0.563-1.253-1.253l0,0
					C584.06,310.203,584.625,309.639,585.313,309.639z"/>
				<path style="fill-rule:evenodd;clip-rule:evenodd;fill:#00000F;" d="M614.05,443.472c0-5.269-4.311-9.578-9.578-9.578H309.695
					c-5.268,0-9.579,4.31-9.579,9.578v10.294c0,1.89,1.546,3.436,3.436,3.436h307.063c1.889,0,3.435-1.546,3.435-3.436V443.472z"/>
				<path style="fill-rule:evenodd;clip-rule:evenodd;fill:#101537;" d="M595.901,445.052c0-3.778-3.092-6.869-6.869-6.869H325.134
					c-3.777,0-6.869,3.091-6.869,6.869v9.102c0,1.355,1.109,2.464,2.464,2.464h272.709c1.356,0,2.464-1.109,2.464-2.464V445.052z"/>
				<g>
					<g>
						<path style="fill-rule:evenodd;clip-rule:evenodd;fill:#B83470;" d="M508.739,154.843v15.038
							c0,8.796-7.196,15.992-15.993,15.992l0,0c-8.796,0-15.992-7.196-15.992-15.992v-15.038l14.409-2.711L508.739,154.843z"/>
						<polygon style="fill-rule:evenodd;clip-rule:evenodd;fill:#E94D90;" points="476.754,154.843 508.739,154.843 
							536.976,132.766 504.989,132.766 						"/>
						<path style="fill-rule:evenodd;clip-rule:evenodd;fill:#F9D2CF;" d="M540.725,154.843v15.038
							c0,8.796-7.196,15.992-15.992,15.992l0,0c-8.797,0-15.993-7.196-15.993-15.992v-15.038l19.936-4.421L540.725,154.843z"/>
						<polygon style="fill-rule:evenodd;clip-rule:evenodd;fill:#FFFFFF;" points="508.739,154.843 540.725,154.843 
							568.961,132.766 536.976,132.766 						"/>
						<path style="fill-rule:evenodd;clip-rule:evenodd;fill:#B83470;" d="M572.71,154.843v15.038
							c0,8.796-7.196,15.992-15.992,15.992l0,0c-8.797,0-15.993-7.196-15.993-15.992v-15.038l16.621-4.565L572.71,154.843z"/>
						<polygon style="fill-rule:evenodd;clip-rule:evenodd;fill:#E94D90;" points="540.725,154.843 572.71,154.843 600.945,132.766 
							568.961,132.766 						"/>
						<path style="fill-rule:evenodd;clip-rule:evenodd;fill:#F9D2CF;" d="M604.695,154.845v15.037
							c0,8.796-7.196,15.992-15.993,15.992l0,0c-8.795,0-15.992-7.196-15.992-15.992v-15.037l15.73-4.992L604.695,154.845z"/>
						<polygon style="fill-rule:evenodd;clip-rule:evenodd;fill:#FFFFFF;" points="572.71,154.843 604.695,154.843 632.932,132.766 
							600.945,132.766 						"/>
						<path style="fill-rule:evenodd;clip-rule:evenodd;fill:#B83470;" d="M636.681,154.843v15.038
							c0,8.796-7.196,15.992-15.992,15.992l0,0c-8.796,0-15.993-7.196-15.993-15.992v-15.038l18.976-2.996L636.681,154.843z"/>
						<path style="fill-rule:evenodd;clip-rule:evenodd;fill:#E94D90;" d="M604.695,154.843h31.985l28.282-22.078
							c-10.677,0-21.354,0-32.031,0L604.695,154.843z"/>
					</g>
					<g>
						<path style="fill-rule:evenodd;clip-rule:evenodd;fill:#B83470;" d="M380.798,154.843v15.038
							c0,8.796-7.197,15.992-15.993,15.992l0,0c-8.796,0-15.992-7.196-15.992-15.992v-15.038l14.409-2.711L380.798,154.843z"/>
						<polygon style="fill-rule:evenodd;clip-rule:evenodd;fill:#E94D90;" points="348.813,154.843 380.798,154.843 
							409.033,132.766 377.049,132.766 						"/>
						<path style="fill-rule:evenodd;clip-rule:evenodd;fill:#F9D2CF;" d="M412.783,154.843v15.038
							c0,8.796-7.196,15.992-15.993,15.992l0,0c-8.796,0-15.992-7.196-15.992-15.992v-15.038l19.937-4.421L412.783,154.843z"/>
						<polygon style="fill-rule:evenodd;clip-rule:evenodd;fill:#FFFFFF;" points="380.798,154.843 412.783,154.843 
							441.019,132.766 409.033,132.766 						"/>
						<path style="fill-rule:evenodd;clip-rule:evenodd;fill:#B83470;" d="M444.769,154.843v15.038
							c0,8.796-7.196,15.992-15.993,15.992l0,0c-8.796,0-15.992-7.196-15.992-15.992v-15.038l16.621-4.565L444.769,154.843z"/>
						<polygon style="fill-rule:evenodd;clip-rule:evenodd;fill:#E94D90;" points="412.783,154.843 444.769,154.843 
							473.005,132.766 441.019,132.766 						"/>
						<path style="fill-rule:evenodd;clip-rule:evenodd;fill:#F9D2CF;" d="M476.754,154.845v15.037
							c0,8.796-7.197,15.992-15.992,15.992l0,0c-8.797,0-15.993-7.196-15.993-15.992v-15.037l15.73-4.992L476.754,154.845z"/>
						<polygon style="fill-rule:evenodd;clip-rule:evenodd;fill:#FFFFFF;" points="444.769,154.843 476.754,154.843 
							504.989,132.766 473.005,132.766 						"/>
					</g>
					<g>
						<path style="fill-rule:evenodd;clip-rule:evenodd;fill:#B83470;" d="M252.855,154.843v15.038
							c0,8.796-7.196,15.992-15.992,15.992h-0.001c-8.795,0-15.992-7.196-15.992-15.992v-15.038l14.409-2.711L252.855,154.843z"/>
						<polygon style="fill-rule:evenodd;clip-rule:evenodd;fill:#E94D90;" points="220.871,154.843 252.855,154.843 
							281.092,132.766 249.106,132.766 						"/>
						<path style="fill-rule:evenodd;clip-rule:evenodd;fill:#F9D2CF;" d="M284.841,154.843v15.038
							c0,8.796-7.196,15.992-15.992,15.992h0c-8.796,0-15.993-7.196-15.993-15.992v-15.038l19.937-4.421L284.841,154.843z"/>
						<polygon style="fill-rule:evenodd;clip-rule:evenodd;fill:#FFFFFF;" points="252.855,154.843 284.841,154.843 
							313.077,132.766 281.092,132.766 						"/>
						<path style="fill-rule:evenodd;clip-rule:evenodd;fill:#B83470;" d="M316.827,154.843v15.038
							c0,8.796-7.196,15.992-15.992,15.992l0,0c-8.796,0-15.994-7.196-15.994-15.992v-15.038l16.622-4.565L316.827,154.843z"/>
						<polygon style="fill-rule:evenodd;clip-rule:evenodd;fill:#E94D90;" points="284.841,154.843 316.827,154.843 
							345.063,132.766 313.077,132.766 						"/>
						<path style="fill-rule:evenodd;clip-rule:evenodd;fill:#F9D2CF;" d="M348.813,154.845v15.037
							c0,8.796-7.197,15.992-15.993,15.992h-0.001c-8.795,0-15.992-7.196-15.992-15.992v-15.037l15.73-4.992L348.813,154.845z"/>
						<polygon style="fill-rule:evenodd;clip-rule:evenodd;fill:#FFFFFF;" points="316.827,154.843 348.813,154.843 
							377.048,132.766 345.063,132.766 						"/>
					</g>
				</g>
				<g>
					<path style="fill-rule:evenodd;clip-rule:evenodd;fill:#E94D90;" d="M356.825,288.652c13.438,0,24.332,10.896,24.332,24.334
						c0,4.461-1.206,8.808-3.525,12.622l-19.629,32.293c-0.257,0.424-0.683,0.663-1.177,0.663c-0.496,0-0.921-0.239-1.178-0.663
						l-19.629-32.293c-2.318-3.814-3.526-8.161-3.526-12.622C332.491,299.548,343.387,288.652,356.825,288.652L356.825,288.652z
						 M356.825,302.362c-5.125,0-9.279,4.155-9.279,9.279c0,5.125,4.154,9.28,9.279,9.28c5.125,0,9.279-4.155,9.279-9.28
						C366.104,306.518,361.95,302.362,356.825,302.362z"/>
					<path style="fill-rule:evenodd;clip-rule:evenodd;fill:#B83470;" d="M366.104,311.642c0,5.125-4.155,9.28-9.279,9.28v37.643
						c0.495,0,0.92-0.239,1.177-0.663l19.629-32.293c2.319-3.814,3.525-8.161,3.525-12.622c0-13.438-10.894-24.334-24.332-24.334
						v13.71C361.95,302.362,366.104,306.518,366.104,311.642z"/>
				</g>
				<rect x="474.521" y="194.448" style="fill-rule:evenodd;clip-rule:evenodd;fill:#EE788F;" width="173.004" height="14.105"/>
				<rect x="474.521" y="214.008" style="fill-rule:evenodd;clip-rule:evenodd;fill:#9FB2D9;" width="173.004" height="11.577"/>
				<path style="fill-rule:evenodd;clip-rule:evenodd;fill:#C0CDEA;" d="M586.071,264.636h62.774c1.106,0,2.01,0.904,2.01,2.01
					v5.115c0,1.105-0.903,2.01-2.01,2.01h-62.774c-1.106,0-2.011-0.904-2.011-2.01v-5.115
					C584.06,265.54,584.966,264.636,586.071,264.636z"/>
				<path style="fill-rule:evenodd;clip-rule:evenodd;fill:#E4E1E8;" d="M585.313,248.279h64.29c0.688,0,1.252,0.563,1.252,1.253
					l0,0c0,0.688-0.563,1.252-1.252,1.252h-64.29c-0.688,0-1.253-0.564-1.253-1.252l0,0
					C584.06,248.842,584.625,248.279,585.313,248.279z"/>
				<path style="fill-rule:evenodd;clip-rule:evenodd;fill:#E4E1E8;" d="M585.313,256.071h64.29c0.688,0,1.252,0.564,1.252,1.253
					l0,0c0,0.688-0.563,1.252-1.252,1.252h-64.29c-0.688,0-1.253-0.565-1.253-1.252l0,0
					C584.06,256.635,584.625,256.071,585.313,256.071z"/>
				<path style="fill-rule:evenodd;clip-rule:evenodd;fill:#E4E1E8;" d="M585.313,279.449h64.29c0.688,0,1.252,0.564,1.252,1.252
					l0,0c0,0.689-0.563,1.252-1.252,1.252h-64.29c-0.688,0-1.253-0.563-1.253-1.252l0,0
					C584.06,280.013,584.625,279.449,585.313,279.449z"/>
				<path style="fill-rule:evenodd;clip-rule:evenodd;fill:#FCE4D6;" d="M586.071,234.445h62.774c1.106,0,2.01,0.904,2.01,2.009
					v5.116c0,1.104-0.903,2.009-2.01,2.009h-62.774c-1.106,0-2.011-0.904-2.011-2.009v-5.116
					C584.06,235.349,584.966,234.445,586.071,234.445z"/>
				<path style="fill-rule:evenodd;clip-rule:evenodd;fill:#E1E8F6;" d="M258.714,233.838h59.907c2.083,0,3.787,1.704,3.787,3.787
					v44.28c0,2.083-1.704,3.787-3.787,3.787h-59.907c-2.083,0-3.788-1.704-3.788-3.787v-44.28
					C254.926,235.542,256.63,233.838,258.714,233.838z"/>
				<path style="fill-rule:evenodd;clip-rule:evenodd;fill:#E94D90;" d="M294.151,253.694l9.398,0.601
					c0.902,0.058,1.637,0.63,1.917,1.488c0.279,0.859,0.02,1.754-0.676,2.33l-7.251,6.012l2.333,9.124
					c0.223,0.875-0.093,1.751-0.823,2.281c-0.731,0.532-1.662,0.561-2.425,0.079l-7.956-5.038l-7.957,5.038
					c-0.764,0.482-1.694,0.453-2.425-0.079c-0.731-0.53-1.047-1.406-0.823-2.281l2.332-9.124l-7.25-6.012
					c-0.695-0.576-0.955-1.471-0.676-2.33c0.28-0.858,1.015-1.431,1.917-1.488l9.398-0.601l3.476-8.753
					c0.333-0.839,1.104-1.362,2.008-1.362c0.903,0,1.674,0.523,2.007,1.362L294.151,253.694z"/>
				<path style="fill-rule:evenodd;clip-rule:evenodd;fill:#E1E8F6;" d="M259.398,292.574h58.539c2.459,0,4.471,2.012,4.471,4.472
					v52.277c0,2.459-2.012,4.472-4.471,4.472h-58.539c-2.46,0-4.472-2.013-4.472-4.472v-52.277
					C254.926,294.586,256.938,292.574,259.398,292.574z"/>
				<path style="fill-rule:evenodd;clip-rule:evenodd;fill:#FFFFFF;" d="M288.668,307.912c8.434,0,15.272,6.838,15.272,15.272
					c0,8.435-6.838,15.271-15.272,15.271c-8.435,0-15.273-6.837-15.273-15.271C273.395,314.75,280.232,307.912,288.668,307.912
					L288.668,307.912z M296.574,325.132c0,2.183-0.885,4.16-2.316,5.591c-1.431,1.43-3.407,2.315-5.59,2.315
					c-2.184,0-4.16-0.886-5.591-2.315c-1.431-1.431-2.316-3.408-2.316-5.591c0-0.498-0.403-0.901-0.901-0.901
					c-0.498,0-0.901,0.403-0.901,0.901c0,2.68,1.087,5.107,2.844,6.864c1.756,1.756,4.184,2.844,6.865,2.844
					c2.681,0,5.108-1.088,6.865-2.844c1.756-1.757,2.843-4.185,2.843-6.864c0-0.498-0.403-0.901-0.9-0.901
					S296.574,324.634,296.574,325.132L296.574,325.132z M283.343,315.646c-0.939,0-1.708,0.769-1.708,1.709v3.257
					c0,0.94,0.77,1.708,1.708,1.708l0,0c0.94,0,1.708-0.768,1.708-1.708v-3.257C285.051,316.414,284.283,315.646,283.343,315.646
					L283.343,315.646L283.343,315.646z M293.991,315.646c-0.939,0-1.709,0.769-1.709,1.709v3.257c0,0.94,0.769,1.708,1.709,1.708
					l0,0c0.939,0,1.707-0.768,1.707-1.708v-3.257C295.699,316.414,294.93,315.646,293.991,315.646L293.991,315.646z"/>
				<text transform="matrix(1 0 0 1 254.6377 224.4409)"><tspan x="0" y="0" style="fill:none;stroke:#FFCB00;stroke-width:2.8346;stroke-miterlimit:5; font-family:'OpenSans-Extrabold'; font-size:38.7442px;">B</tspan><tspan x="26.107" y="0" style="fill:none;stroke:#FFCB00;stroke-width:2.8346;stroke-miterlimit:5; font-family:'OpenSans-Extrabold'; font-size:38.7442px;">UY.COM</tspan></text>
			</g>
			<path style="fill-rule:evenodd;clip-rule:evenodd;fill:#E4E1E8;" d="M329.571,277.646h102.973c0.689,0,1.252,0.564,1.252,1.253
				l0,0c0,0.689-0.564,1.253-1.252,1.253H329.571c-0.689,0-1.253-0.564-1.253-1.253l0,0
				C328.319,278.21,328.882,277.646,329.571,277.646z"/>
			<path style="fill-rule:evenodd;clip-rule:evenodd;fill:#E4E1E8;" d="M585.313,278.47h64.29c0.688,0,1.252,0.563,1.252,1.252l0,0
				c0,0.688-0.563,1.252-1.252,1.252h-64.29c-0.688,0-1.253-0.563-1.253-1.252l0,0C584.06,279.032,584.625,278.47,585.313,278.47z"
				/>
			<g>
				<path style="fill-rule:evenodd;clip-rule:evenodd;fill:#00000F;" d="M679.456,375.61c0.032,0.628,0.568,1.112,1.196,1.08
					c0.629-0.032,1.113-0.568,1.081-1.196c-0.908-17.686-4.979-27.82-9.818-32.031c-2.16-1.879-4.491-2.638-6.804-2.405
					c-2.273,0.229-4.479,1.422-6.438,3.451c-4.869,5.05-8.325,15.525-7.293,29.191c0.046,0.628,0.596,1.1,1.224,1.054
					c0.629-0.047,1.101-0.595,1.054-1.224c-0.981-12.975,2.183-22.798,6.659-27.44c1.577-1.635,3.297-2.591,5.018-2.764
					c1.684-0.169,3.421,0.418,5.079,1.861C674.843,349.041,678.584,358.627,679.456,375.61z"/>
				<path style="fill-rule:evenodd;clip-rule:evenodd;fill:#F18A00;" d="M695.813,372.134c0,0,1.49,0.103,1.85,2.261
					c0.359,2.157,5.343,78.595,5.343,78.595s1.079,4.212-5.754,4.212c-20.515,0-41.03,0-61.545,0c-6.832,0-5.753-4.212-5.753-4.212
					s4.982-76.438,5.342-78.595c0.359-2.158,1.849-2.261,1.849-2.261C656.7,372.134,676.256,372.134,695.813,372.134z"/>
				<path style="fill-rule:evenodd;clip-rule:evenodd;fill:#FCC100;" d="M687.507,372.134c0,0,1.491,0.103,1.851,2.261
					c0.359,2.157,5.342,78.595,5.342,78.595s1.078,4.212-5.754,4.212c-20.514,0-41.029,0-61.545,0c-6.832,0-5.753-4.212-5.753-4.212
					s4.982-76.438,5.343-78.595c0.359-2.158,1.849-2.261,1.849-2.261C648.396,372.134,667.951,372.134,687.507,372.134z"/>
				<path style="fill-rule:evenodd;clip-rule:evenodd;fill:#F18A00;" d="M659.599,457.201h-0.664h-0.623h-0.138h-0.486h-0.476
					h-0.147h-0.624h-0.19h-0.433h-0.528h-0.095h-0.623h-0.244h-0.38h-0.582h-0.041h-0.623h-0.298h-0.325h-0.623h-0.013h-0.61h-0.352
					h-0.271h-0.623h-0.066h-0.558h-0.403h-0.22h-0.622h-0.121h-0.503h-0.458h-0.166h-0.623h-0.173h-0.45h-0.511h-0.112h-0.623
					h-0.228h-0.396h-0.564h-0.059h-0.624h-0.278h-0.345h-0.618h-0.005h-0.623h-0.334h-0.29h-0.622h-0.049h-0.575h-0.387h-0.236
					h-0.623h-0.102h-0.522h-0.439h-0.184h-0.624h-0.153h-0.47h-0.493h-0.129h-0.623h-0.209h-0.415h-0.547h-0.077h-0.622h-0.263
					h-0.361h-0.6h-0.023h-0.623h-0.316h-0.308h-0.623h-0.03h-0.594H627.4c-6.832,0-5.753-4.212-5.753-4.212
					s1.844-28.282,3.369-50.925h33.608c0,0,0.966,0.066,1.199,1.465c0.232,1.398,3.462,50.941,3.462,50.941
					S663.98,457.185,659.599,457.201z"/>
				<path style="fill-rule:evenodd;clip-rule:evenodd;fill:#101537;" d="M639.945,377.362c-0.012,0.629,0.487,1.148,1.117,1.161
					c0.629,0.013,1.148-0.487,1.161-1.116c0.379-17.118,3.61-26.789,7.706-30.75c1.572-1.52,3.259-2.135,4.924-1.96
					c1.725,0.182,3.49,1.198,5.148,2.927c4.869,5.078,8.59,15.958,7.953,30.003c-0.026,0.629,0.462,1.16,1.09,1.188
					c0.63,0.026,1.161-0.462,1.189-1.089c0.665-14.704-3.348-26.218-8.588-31.683c-2.034-2.119-4.281-3.375-6.56-3.614
					c-2.337-0.246-4.647,0.565-6.737,2.586C643.867,349.347,640.341,359.565,639.945,377.362z"/>
				<path style="fill-rule:evenodd;clip-rule:evenodd;fill:#00000F;" d="M619.804,404.791c-0.022,0.448-0.405,0.792-0.852,0.77
					c-0.448-0.023-0.793-0.404-0.771-0.852c0.648-12.597,3.546-19.815,6.993-22.814c1.539-1.338,3.199-1.879,4.846-1.713
					c1.62,0.162,3.192,1.013,4.586,2.457c3.469,3.598,5.931,11.06,5.195,20.794c-0.033,0.447-0.425,0.783-0.873,0.75
					c-0.447-0.033-0.783-0.424-0.75-0.872c0.698-9.242-1.554-16.237-4.742-19.545c-1.124-1.164-2.35-1.845-3.574-1.968
					c-1.199-0.121-2.437,0.297-3.618,1.324C623.09,385.867,620.426,392.694,619.804,404.791z"/>
				<path style="fill-rule:evenodd;clip-rule:evenodd;fill:#B83470;" d="M610.892,403.27c0,0-0.944,0.065-1.173,1.434
					c-0.228,1.366-3.387,49.827-3.387,49.827s-0.684,2.671,3.648,2.671c13.006,0,26.013,0,39.02,0c4.331,0,3.646-2.671,3.646-2.671
					s-3.158-48.461-3.387-49.827c-0.227-1.368-1.172-1.434-1.172-1.434C635.688,403.27,623.29,403.27,610.892,403.27z"/>
				<path style="fill-rule:evenodd;clip-rule:evenodd;fill:#E94D90;" d="M616.156,403.27c0,0-0.943,0.065-1.172,1.434
					c-0.228,1.366-3.387,49.827-3.387,49.827s-0.685,2.671,3.647,2.671c13.007,0,26.013,0,39.019,0c4.331,0,3.648-2.671,3.648-2.671
					s-3.159-48.461-3.388-49.827c-0.228-1.368-1.173-1.434-1.173-1.434C640.953,403.27,628.555,403.27,616.156,403.27z"/>
				<path style="fill-rule:evenodd;clip-rule:evenodd;fill:#101537;" d="M647.946,406.039c0.009,0.448-0.348,0.818-0.796,0.827
					c-0.447,0.009-0.818-0.347-0.826-0.796c-0.27-12.191-2.572-19.08-5.489-21.9c-1.121-1.084-2.321-1.521-3.508-1.397
					c-1.229,0.129-2.484,0.854-3.666,2.085c-3.469,3.616-6.119,11.366-5.666,21.37c0.019,0.447-0.327,0.827-0.776,0.846
					c-0.447,0.02-0.826-0.328-0.845-0.776c-0.475-10.472,2.384-18.674,6.116-22.565c1.448-1.51,3.049-2.403,4.673-2.574
					c1.663-0.176,3.31,0.401,4.798,1.842C645.153,386.085,647.665,393.362,647.946,406.039z"/>
			</g>
			<g>
				<g>
					<rect x="343.88" y="399.99" style="fill-rule:evenodd;clip-rule:evenodd;fill:#F8B243;" width="55.319" height="57.211"/>
					<rect x="311.853" y="399.99" style="fill-rule:evenodd;clip-rule:evenodd;fill:#C48137;" width="41.49" height="57.211"/>
					<rect x="328.304" y="399.99" style="fill-rule:evenodd;clip-rule:evenodd;fill:#F8B243;" width="8.589" height="19.943"/>
					<rect x="328.304" y="426.667" style="fill-rule:evenodd;clip-rule:evenodd;fill:#F8B243;" width="8.589" height="8.661"/>
				</g>
				<g>
					<rect x="330.318" y="366.968" style="fill-rule:evenodd;clip-rule:evenodd;fill:#F8B243;" width="31.93" height="33.022"/>
					<rect x="356.786" y="366.968" style="fill-rule:evenodd;clip-rule:evenodd;fill:#C48137;" width="23.947" height="33.022"/>
					<rect x="366.281" y="366.968" style="fill-rule:evenodd;clip-rule:evenodd;fill:#F8B243;" width="4.957" height="11.511"/>
					<rect x="366.281" y="382.365" style="fill-rule:evenodd;clip-rule:evenodd;fill:#F8B243;" width="4.957" height="5"/>
				</g>
			</g>
			<g>
				<path style="fill-rule:evenodd;clip-rule:evenodd;fill:#294D3C;" d="M130.328,343.916c13.832-7.352,17.344,8.645,11.965,21.891
					c-5.379,13.246-32.974,57.798-34.415,75.468c-0.559,6.85-1.835,6.102-2.929,1.299
					C99.498,418.62,111.286,354.036,130.328,343.916z"/>
				<g>
					<path style="fill-rule:evenodd;clip-rule:evenodd;fill:#4A9075;" d="M101.039,283.226
						c-15.862-14.281-25.779,5.708-23.037,24.991c2.742,19.283,24.527,87.279,20.604,111.111c-1.52,9.238,0.415,8.672,3.443,2.683
						C117.156,392.145,122.873,302.883,101.039,283.226z"/>
					<path style="fill-rule:evenodd;clip-rule:evenodd;fill:#1B7154;" d="M98.276,425.951c0.339,0.886,1.092,0.446,2.104-1.028
						c16.53-55.065-9.221-137.338-9.303-137.602c-0.14-0.453-0.621-0.707-1.074-0.567c-0.454,0.141-0.708,0.622-0.568,1.074
						C89.517,288.093,115.619,371.489,98.276,425.951z"/>
				</g>
				<g>
					<path style="fill-rule:evenodd;clip-rule:evenodd;fill:#A6C86B;" d="M66.396,328.977c-15.369-6.689-17.781,10.668-10.939,24.35
						c6.842,13.682,39.991,58.909,43.002,77.638c1.167,7.26,2.467,6.355,3.232,1.142C105.51,406.099,87.552,338.185,66.396,328.977z
						"/>
					<path style="fill-rule:evenodd;clip-rule:evenodd;fill:#5F9850;" d="M99.86,435.98c0.474,0.574,0.925,0.059,1.312-1.291
						c-1.392-45.131-41.05-100.006-41.177-100.182c-0.217-0.303-0.639-0.372-0.941-0.155c-0.303,0.217-0.373,0.639-0.155,0.941
						C59.025,335.471,99.225,391.096,99.86,435.98z"/>
				</g>
				<g>
					<polygon style="fill-rule:evenodd;clip-rule:evenodd;fill:#3B405F;" points="88.037,425.986 117.563,425.986 125.272,432.944 
						118.975,457.201 102.799,457.201 86.625,457.201 80.328,432.944 					"/>
					<path style="fill-rule:evenodd;clip-rule:evenodd;fill:#3B405F;" d="M80.328,416.96h44.943c1.345,0,2.444,1.1,2.444,2.444
						V430.5c0,1.344-1.1,2.444-2.444,2.444H80.328c-1.344,0-2.444-1.1-2.444-2.444v-11.096
						C77.883,418.06,78.983,416.96,80.328,416.96z"/>
					<polygon style="fill-rule:evenodd;clip-rule:evenodd;fill:#101537;" points="125.272,432.944 123.977,437.93 81.623,437.93 
						80.328,432.944 					"/>
				</g>
			</g>
			<path style="fill-rule:evenodd;clip-rule:evenodd;fill:#C0CDEA;" d="M118.207,82.641c-1.374-1.374-3.02-2.483-4.853-3.243
				c-1.762-0.73-3.692-1.133-5.711-1.133c-2.019,0-3.947,0.403-5.71,1.133c-1.832,0.759-3.479,1.868-4.854,3.242
				c-1.373,1.374-2.483,3.021-3.242,4.853c-0.73,1.762-1.133,3.691-1.133,5.71c0,2.019,0.403,3.948,1.133,5.71
				c0.759,1.833,1.868,3.479,3.242,4.853c1.375,1.374,3.02,2.483,4.851,3.241c1.762,0.731,3.692,1.135,5.712,1.135
				c2.019,0,3.949-0.404,5.711-1.134c1.832-0.758,3.479-1.869,4.853-3.243c1.375-1.374,2.484-3.021,3.242-4.853
				c0.73-1.762,1.134-3.691,1.134-5.71c0-2.019-0.403-3.948-1.134-5.71C120.69,85.662,119.581,84.015,118.207,82.641L118.207,82.641
				z M112.83,80.674c1.654,0.685,3.146,1.693,4.398,2.946c1.253,1.252,2.261,2.745,2.946,4.398c0.661,1.595,1.025,3.346,1.025,5.186
				c0,1.84-0.365,3.592-1.025,5.186c-0.685,1.653-1.692,3.146-2.946,4.398c-1.252,1.252-2.745,2.261-4.398,2.945
				c-1.595,0.66-3.346,1.025-5.187,1.025c-1.838,0-3.589-0.365-5.183-1.025c-1.657-0.685-3.149-1.693-4.402-2.945
				c-1.252-1.253-2.26-2.745-2.945-4.399c-0.661-1.594-1.025-3.345-1.025-5.186c0-1.84,0.364-3.591,1.025-5.186
				c0.684-1.653,1.692-3.146,2.945-4.398c1.253-1.253,2.745-2.261,4.398-2.945c1.595-0.661,3.347-1.025,5.186-1.025
				C109.483,79.65,111.235,80.014,112.83,80.674L112.83,80.674z M114.48,69.682c0.935,0.27,1.855,0.599,2.754,0.982
				c0.912,0.388,1.794,0.83,2.644,1.32c0.862,0.499,1.694,1.051,2.491,1.651c0.8,0.603,1.56,1.252,2.275,1.942
				c0.254,0.244,0.57,0.387,0.895,0.426c0.331,0.04,0.675-0.027,0.973-0.2c2.193-1.267,4.5-2.521,6.65-3.84
				c0.104-0.054,0.213-0.087,0.322-0.099c0.124-0.013,0.249-0.004,0.367,0.028c0.122,0.032,0.237,0.087,0.336,0.164
				c0.095,0.072,0.178,0.166,0.242,0.276c1.599,2.42,3.204,5.546,4.686,8.112c0.063,0.109,0.102,0.228,0.116,0.344
				c0.016,0.123,0.005,0.253-0.027,0.378c-0.032,0.122-0.088,0.236-0.164,0.336c-0.073,0.096-0.166,0.179-0.276,0.243
				c-1.973,1.305-4.516,2.61-6.608,3.818c-0.307,0.176-0.531,0.44-0.659,0.74c-0.045,0.105-0.078,0.214-0.099,0.326l-0.136,0.045
				l0.152,0.617c0.121,0.485,0.225,0.969,0.314,1.452c0.086,0.469,0.161,0.961,0.223,1.473c0.06,0.5,0.106,0.997,0.136,1.486
				c0.029,0.479,0.043,0.981,0.043,1.503c0,0.522-0.014,1.022-0.043,1.501c-0.03,0.49-0.076,0.987-0.136,1.487
				c-0.063,0.513-0.138,1.004-0.224,1.473c-0.088,0.483-0.194,0.968-0.314,1.453c-0.088,0.36-0.044,0.721,0.1,1.031
				c0.143,0.31,0.389,0.571,0.707,0.734l5.852,3.378l-0.003,0.002l0.694,0.401c0.11,0.063,0.203,0.146,0.276,0.242
				c0.075,0.099,0.131,0.214,0.164,0.336c0.033,0.126,0.043,0.254,0.027,0.377c-0.015,0.118-0.053,0.235-0.116,0.345l-4.332,7.507
				l-0.003-0.002l-0.35,0.606c-0.063,0.11-0.147,0.202-0.242,0.276c-0.1,0.075-0.214,0.131-0.336,0.164
				c-0.124,0.033-0.252,0.043-0.375,0.028c-0.117-0.016-0.233-0.054-0.343-0.117c-2.096-1.316-4.461-2.574-6.624-3.822
				c-0.309-0.176-0.647-0.238-0.967-0.199c-0.333,0.04-0.648,0.186-0.895,0.422l-0.003,0.003c-0.715,0.69-1.476,1.339-2.276,1.943
				c-0.795,0.599-1.627,1.151-2.49,1.649c-0.854,0.494-1.743,0.939-2.662,1.329c-0.901,0.384-1.838,0.716-2.802,0.993
				c-0.339,0.096-0.622,0.299-0.82,0.562c-0.201,0.266-0.315,0.598-0.315,0.944l-0.003,7.636c0,0.128-0.025,0.251-0.071,0.359
				c-0.047,0.113-0.119,0.218-0.208,0.308c-0.086,0.089-0.192,0.161-0.308,0.209c-0.109,0.046-0.231,0.071-0.359,0.071h-9.371
				c-0.128,0-0.25-0.025-0.359-0.071c-0.116-0.048-0.221-0.12-0.31-0.207c-0.088-0.091-0.16-0.196-0.207-0.309
				c-0.045-0.109-0.07-0.231-0.07-0.359v-7.636c0-0.364-0.127-0.7-0.34-0.969c-0.216-0.274-0.52-0.475-0.866-0.556
				c-0.936-0.27-1.854-0.598-2.753-0.981c-0.912-0.388-1.796-0.83-2.645-1.32c-0.862-0.499-1.694-1.051-2.49-1.651
				c-0.801-0.603-1.561-1.252-2.276-1.942c-0.266-0.254-0.6-0.397-0.942-0.429c-0.348-0.032-0.705,0.053-1.005,0.251l-6.538,3.774
				c-0.108,0.063-0.227,0.101-0.345,0.116c-0.124,0.015-0.253,0.005-0.378-0.028c-0.121-0.033-0.237-0.088-0.336-0.164
				c-0.095-0.074-0.178-0.166-0.242-0.276c-1.553-2.709-3.13-5.405-4.686-8.113c-0.063-0.11-0.101-0.228-0.116-0.346
				c-0.016-0.123-0.006-0.251,0.027-0.376c0.033-0.123,0.088-0.239,0.163-0.337c0.072-0.097,0.164-0.179,0.271-0.241l6.614-3.819
				c0.307-0.176,0.531-0.438,0.659-0.74c0.035-0.08,0.063-0.165,0.084-0.251l0.172-0.035l-0.174-0.702
				c-0.12-0.484-0.225-0.969-0.313-1.451c-0.087-0.47-0.162-0.962-0.224-1.475c-0.061-0.499-0.106-0.997-0.136-1.487
				c-0.029-0.478-0.043-0.979-0.043-1.501c0-0.521,0.014-1.022,0.043-1.501c0.03-0.49,0.075-0.985,0.136-1.486
				c0.063-0.518,0.139-1.012,0.224-1.478c0.089-0.481,0.193-0.965,0.313-1.449c0.089-0.361,0.045-0.724-0.099-1.034
				c-0.146-0.309-0.39-0.569-0.704-0.731l-6.55-3.781c-0.108-0.061-0.199-0.145-0.273-0.241c-0.074-0.096-0.129-0.212-0.163-0.337
				c-0.033-0.125-0.043-0.253-0.027-0.376c0.015-0.119,0.053-0.237,0.116-0.346c1.599-2.378,3.202-5.555,4.686-8.112
				c0.064-0.11,0.147-0.204,0.242-0.276c0.099-0.076,0.214-0.131,0.336-0.164c0.125-0.034,0.254-0.044,0.376-0.028
				c0.116,0.014,0.234,0.053,0.346,0.118l6.618,3.82c0.311,0.182,0.661,0.243,0.993,0.197c0.333-0.045,0.649-0.198,0.894-0.441
				c0.72-0.692,1.477-1.338,2.266-1.932c0.786-0.592,1.616-1.142,2.482-1.643c0.854-0.493,1.744-0.938,2.662-1.329
				c0.902-0.382,1.837-0.715,2.801-0.992c0.339-0.097,0.623-0.299,0.821-0.562c0.201-0.266,0.315-0.597,0.315-0.944l0.003-7.637
				c0-0.128,0.025-0.25,0.07-0.359c0.047-0.113,0.119-0.218,0.209-0.307c0.087-0.09,0.192-0.161,0.308-0.209
				c0.109-0.046,0.23-0.071,0.359-0.071h9.371c0.129,0,0.251,0.025,0.359,0.071c0.116,0.048,0.222,0.119,0.309,0.207
				c0.171,0.173,0.278,0.41,0.278,0.668v7.637c0,0.366,0.126,0.702,0.337,0.969C113.831,69.4,114.135,69.601,114.48,69.682
				L114.48,69.682z M117.775,69.393c0.963,0.41,1.896,0.877,2.794,1.397c0.916,0.53,1.796,1.112,2.632,1.743
				c0.839,0.633,1.641,1.317,2.4,2.05c0.029,0.028,0.065,0.044,0.105,0.048c0.04,0.005,0.081-0.002,0.114-0.021
				c2.225-1.284,4.454-2.563,6.674-3.854c0.264-0.144,0.549-0.23,0.835-0.263c0.296-0.034,0.595-0.01,0.878,0.066
				c0.292,0.078,0.571,0.214,0.817,0.401c0.236,0.18,0.442,0.41,0.598,0.682c1.612,2.611,3.144,5.44,4.687,8.111
				c0.156,0.271,0.251,0.565,0.289,0.863c0.039,0.308,0.018,0.618-0.061,0.909c-0.077,0.292-0.214,0.57-0.401,0.816
				c-0.18,0.237-0.409,0.442-0.681,0.599c-2.128,1.313-4.437,2.562-6.614,3.818c-0.034,0.02-0.06,0.051-0.075,0.087
				c-0.016,0.037-0.02,0.078-0.011,0.116l0.152,0.617L132.9,87.58c0.066,0.3,0.128,0.604,0.185,0.914
				c0.097,0.529,0.177,1.051,0.239,1.562c0.062,0.506,0.109,1.029,0.142,1.566c0.032,0.539,0.049,1.068,0.049,1.583
				c0,0.514-0.017,1.042-0.049,1.582c-0.033,0.539-0.08,1.062-0.142,1.568c-0.063,0.51-0.143,1.031-0.239,1.56
				c-0.097,0.527-0.207,1.038-0.33,1.534c-0.011,0.042-0.005,0.085,0.012,0.12c0.019,0.041,0.048,0.072,0.082,0.089
				c2.43,1.298,4.897,2.825,7.3,4.213l-0.085,0.107l0.073,0.091c0.188,0.246,0.324,0.525,0.401,0.817
				c0.079,0.291,0.1,0.6,0.061,0.908c-0.038,0.297-0.133,0.591-0.291,0.862l-5.035,8.72l-0.093-0.056
				c-0.05,0.045-0.102,0.089-0.156,0.129c-0.246,0.188-0.525,0.324-0.817,0.403c-0.29,0.077-0.599,0.099-0.906,0.059
				c-0.29-0.036-0.575-0.127-0.84-0.275c-2.202-1.169-4.47-2.58-6.645-3.837c-0.032-0.018-0.072-0.024-0.111-0.019
				c-0.04,0.004-0.08,0.022-0.108,0.05c-0.759,0.731-1.561,1.416-2.398,2.048c-0.836,0.629-1.714,1.212-2.63,1.741
				c-0.904,0.523-1.844,0.993-2.813,1.405c-0.963,0.409-1.953,0.761-2.964,1.051c-0.04,0.011-0.073,0.035-0.096,0.065
				c-0.025,0.034-0.04,0.073-0.037,0.112v7.636c0,0.312-0.064,0.613-0.179,0.889c-0.119,0.286-0.293,0.544-0.508,0.756
				c-0.215,0.214-0.471,0.388-0.754,0.506c-0.276,0.114-0.577,0.178-0.889,0.178h-9.371c-0.312,0-0.613-0.064-0.888-0.178
				c-0.284-0.119-0.54-0.292-0.757-0.506c-0.213-0.212-0.386-0.47-0.505-0.756c-0.116-0.276-0.18-0.577-0.18-0.889v-7.636
				c0-0.046-0.013-0.087-0.036-0.115c-0.023-0.03-0.061-0.055-0.104-0.064l-0.03-0.011c-1.017-0.293-2-0.643-2.944-1.045
				c-0.963-0.41-1.897-0.877-2.796-1.396c-0.916-0.53-1.794-1.113-2.631-1.743c-0.839-0.632-1.641-1.317-2.401-2.05
				c-0.031-0.031-0.07-0.048-0.109-0.051c-0.041-0.004-0.082,0.007-0.118,0.03l-6.614,3.818c-0.272,0.157-0.564,0.252-0.858,0.289
				c-0.308,0.039-0.617,0.017-0.908-0.06c-0.292-0.079-0.571-0.215-0.817-0.403c-0.231-0.175-0.433-0.398-0.588-0.662
				c-1.737-2.794-3.378-5.854-5.037-8.723l0.089-0.053c-0.016-0.073-0.029-0.147-0.039-0.22c-0.039-0.307-0.018-0.615,0.06-0.906
				c0.078-0.292,0.214-0.572,0.402-0.817c0.18-0.237,0.409-0.442,0.68-0.599l6.615-3.818c0.034-0.02,0.06-0.051,0.075-0.086
				c0.016-0.038,0.02-0.08,0.01-0.12l-0.171-0.699l0.009-0.002c-0.059-0.272-0.114-0.549-0.166-0.83
				c-0.098-0.529-0.178-1.05-0.24-1.561c-0.062-0.507-0.109-1.03-0.142-1.569c-0.033-0.54-0.049-1.067-0.049-1.582
				c0-0.515,0.017-1.042,0.049-1.582c0.033-0.538,0.08-1.062,0.142-1.572c0.062-0.506,0.142-1.026,0.24-1.56
				c0.096-0.525,0.207-1.036,0.33-1.531c0.009-0.04,0.003-0.083-0.014-0.123c-0.017-0.036-0.047-0.067-0.085-0.086l-6.605-3.814
				c-0.273-0.158-0.501-0.363-0.68-0.6c-0.188-0.248-0.324-0.526-0.401-0.815c-0.078-0.289-0.099-0.599-0.06-0.906
				c0.037-0.289,0.129-0.576,0.279-0.843c1.574-2.916,3.38-5.856,5.045-8.741l0.093,0.056c0.05-0.045,0.103-0.089,0.156-0.13
				c0.246-0.188,0.525-0.323,0.817-0.401c0.291-0.078,0.6-0.1,0.907-0.061c0.298,0.038,0.591,0.132,0.859,0.286l0.489,0.282
				l-0.002,0.005l6.135,3.54c0.037,0.021,0.078,0.028,0.117,0.023c0.039-0.005,0.077-0.024,0.105-0.052l0.016-0.016
				c0.751-0.724,1.551-1.405,2.395-2.04c0.839-0.631,1.714-1.211,2.618-1.734c0.903-0.522,1.843-0.993,2.812-1.404
				c0.963-0.409,1.954-0.761,2.963-1.051c0.041-0.012,0.074-0.035,0.097-0.066c0.025-0.034,0.04-0.074,0.037-0.111v-7.637
				c0-0.312,0.064-0.613,0.179-0.889c0.12-0.287,0.293-0.544,0.508-0.757c0.215-0.214,0.471-0.388,0.755-0.506
				c0.275-0.115,0.576-0.179,0.888-0.179h9.371c0.312,0,0.613,0.064,0.889,0.179c0.284,0.118,0.54,0.292,0.757,0.506
				c0.422,0.422,0.685,1.004,0.685,1.646v7.637c0,0.044,0.015,0.084,0.037,0.116c0.025,0.03,0.061,0.053,0.103,0.063l0.03,0.011
				C115.847,68.641,116.83,68.991,117.775,69.393z"/>
			<path style="fill-rule:evenodd;clip-rule:evenodd;fill:#C0CDEA;" d="M101.993,178.503L101.993,178.503L101.993,178.503z
				 M98.697,165.953c-1.148-1.147-2.733-1.857-4.483-1.857c-1.751,0-3.336,0.71-4.484,1.857c-1.147,1.148-1.857,2.733-1.857,4.483
				c0,1.751,0.71,3.337,1.857,4.484c1.148,1.147,2.733,1.857,4.484,1.857c1.75,0,3.335-0.71,4.483-1.857
				c1.147-1.147,1.857-2.733,1.857-4.484C100.554,168.686,99.844,167.101,98.697,165.953L98.697,165.953z M97.327,159.669
				c0.878,0.253,1.711,0.611,2.485,1.058c0.794,0.459,1.525,1.012,2.181,1.643c0.127,0.123,0.318,0.141,0.464,0.057l2.946-1.701
				l0.016-0.01c0.17-0.091,0.362-0.108,0.538-0.062c0.181,0.049,0.343,0.166,0.444,0.339l0.012,0.02l2.073,3.59
				c0.1,0.173,0.12,0.373,0.071,0.555c-0.048,0.181-0.166,0.344-0.339,0.443l-0.02,0.013l-2.922,1.687
				c-0.153,0.088-0.224,0.266-0.184,0.429h-0.001c0.107,0.435,0.191,0.882,0.246,1.34c0.055,0.446,0.082,0.902,0.082,1.366
				c0,0.465-0.027,0.92-0.082,1.366c-0.056,0.458-0.139,0.905-0.246,1.339c-0.044,0.181,0.045,0.363,0.206,0.442l2.921,1.686
				l0,0.001c0.173,0.1,0.29,0.263,0.339,0.444c0.049,0.182,0.029,0.382-0.071,0.555l-2.084,3.611H106.4
				c-0.101,0.173-0.263,0.29-0.444,0.338c-0.181,0.049-0.38,0.029-0.554-0.071l-0.021-0.012l-2.926-1.689
				c-0.153-0.087-0.341-0.06-0.463,0.057c-0.656,0.631-1.387,1.185-2.181,1.643c-0.778,0.45-1.617,0.809-2.501,1.063
				c-0.171,0.049-0.283,0.205-0.283,0.375v3.398c0,0.2-0.083,0.382-0.215,0.515c-0.132,0.132-0.314,0.214-0.514,0.214h-4.17
				c-0.2,0-0.382-0.082-0.515-0.214c-0.132-0.132-0.215-0.314-0.215-0.515v-3.399c0-0.184-0.127-0.338-0.299-0.379
				c-0.878-0.253-1.711-0.611-2.485-1.058c-0.794-0.458-1.525-1.012-2.18-1.644c-0.133-0.128-0.335-0.142-0.484-0.043l-2.926,1.689
				c-0.173,0.099-0.372,0.119-0.554,0.07c-0.181-0.049-0.344-0.165-0.443-0.338l-0.013-0.021l-2.074-3.591l0-0.001
				c-0.1-0.173-0.119-0.372-0.07-0.553c0.048-0.182,0.165-0.344,0.337-0.444l2.944-1.7c0.154-0.088,0.224-0.265,0.184-0.43h0
				c-0.107-0.434-0.189-0.881-0.246-1.339c-0.054-0.446-0.083-0.901-0.083-1.366c0-0.464,0.028-0.92,0.083-1.366
				c0.056-0.458,0.138-0.905,0.246-1.34c0.044-0.18-0.045-0.362-0.206-0.442l-2.922-1.687c-0.172-0.099-0.289-0.262-0.337-0.443
				c-0.049-0.181-0.029-0.381,0.07-0.554l0.012-0.022l2.074-3.59l0,0c0.1-0.174,0.263-0.291,0.443-0.339
				c0.182-0.048,0.381-0.029,0.554,0.07l-0.001,0.001l2.946,1.701c0.157,0.091,0.352,0.059,0.473-0.064
				c0.653-0.629,1.382-1.179,2.172-1.635c0.778-0.45,1.617-0.809,2.501-1.063c0.171-0.049,0.283-0.205,0.283-0.375v-3.399
				c0-0.2,0.083-0.382,0.215-0.515c0.132-0.132,0.314-0.214,0.515-0.214h4.17c0.2,0,0.382,0.082,0.514,0.214
				c0.133,0.133,0.215,0.315,0.215,0.515v3.399C97.028,159.473,97.156,159.628,97.327,159.669z"/>
			<path style="fill-rule:evenodd;clip-rule:evenodd;fill:#C0CDEA;" d="M653.819,86.022L653.819,86.022L653.819,86.022z
				 M650.523,73.471c-1.147-1.147-2.732-1.857-4.483-1.857c-1.751,0-3.337,0.71-4.484,1.857c-1.147,1.148-1.857,2.732-1.857,4.483
				s0.709,3.336,1.857,4.484c1.147,1.147,2.733,1.857,4.484,1.857c1.751,0,3.336-0.71,4.483-1.857
				c1.148-1.147,1.857-2.733,1.857-4.484S651.671,74.619,650.523,73.471L650.523,73.471z M649.153,67.187
				c0.879,0.253,1.712,0.611,2.485,1.058c0.793,0.459,1.525,1.012,2.181,1.644c0.128,0.123,0.317,0.142,0.465,0.057l2.946-1.701
				l0.015-0.01c0.169-0.091,0.362-0.108,0.538-0.061c0.181,0.049,0.344,0.166,0.443,0.339l0.013,0.02l2.073,3.591
				c0.1,0.173,0.119,0.373,0.07,0.555c-0.048,0.181-0.165,0.343-0.339,0.443l-0.019,0.013l-2.923,1.687
				c-0.152,0.088-0.224,0.266-0.184,0.429l0,0c0.107,0.435,0.189,0.882,0.246,1.34c0.054,0.446,0.082,0.902,0.082,1.366
				c0,0.464-0.028,0.92-0.082,1.366c-0.057,0.458-0.139,0.905-0.247,1.339c-0.045,0.181,0.046,0.363,0.206,0.442l2.921,1.687v0
				c0.174,0.1,0.291,0.263,0.339,0.444c0.049,0.182,0.029,0.382-0.07,0.555l-2.085,3.611h-0.001c-0.1,0.173-0.263,0.29-0.443,0.338
				c-0.182,0.049-0.381,0.029-0.553-0.071l-0.021-0.012l-2.927-1.689c-0.153-0.087-0.342-0.06-0.463,0.056
				c-0.655,0.631-1.388,1.185-2.181,1.644c-0.778,0.45-1.616,0.809-2.501,1.063c-0.172,0.048-0.284,0.205-0.284,0.375v3.398
				c0,0.2-0.081,0.382-0.214,0.515c-0.132,0.132-0.314,0.214-0.515,0.214h-4.171c-0.199,0-0.382-0.082-0.515-0.214
				c-0.133-0.132-0.214-0.314-0.214-0.515v-3.399c0-0.184-0.128-0.338-0.3-0.379c-0.879-0.253-1.712-0.611-2.486-1.058
				c-0.792-0.459-1.523-1.012-2.18-1.644c-0.133-0.128-0.334-0.142-0.482-0.044l-2.927,1.689c-0.174,0.099-0.372,0.119-0.555,0.07
				c-0.181-0.049-0.343-0.165-0.442-0.338l-0.013-0.021l-2.074-3.592v0c-0.1-0.172-0.119-0.371-0.069-0.553
				c0.048-0.182,0.164-0.344,0.337-0.444l2.943-1.699c0.153-0.088,0.224-0.266,0.184-0.43l0,0c-0.106-0.434-0.189-0.881-0.245-1.339
				c-0.055-0.446-0.083-0.902-0.083-1.366c0-0.464,0.028-0.92,0.083-1.366c0.056-0.458,0.139-0.905,0.245-1.34
				c0.046-0.18-0.045-0.362-0.205-0.441l-2.922-1.688c-0.173-0.099-0.289-0.261-0.337-0.443c-0.05-0.181-0.03-0.38,0.069-0.554
				l0.012-0.021l2.073-3.59l0.001,0.001c0.101-0.173,0.263-0.291,0.443-0.339c0.182-0.048,0.381-0.029,0.554,0.071v0l2.946,1.701
				c0.157,0.091,0.352,0.06,0.474-0.065c0.652-0.628,1.382-1.178,2.172-1.635c0.777-0.45,1.616-0.809,2.5-1.063
				c0.172-0.049,0.284-0.205,0.284-0.374v-3.399c0-0.2,0.081-0.382,0.214-0.514c0.133-0.133,0.315-0.215,0.515-0.215h4.171
				c0.2,0,0.383,0.082,0.515,0.215c0.133,0.132,0.214,0.313,0.214,0.514v3.399C648.854,66.992,648.981,67.146,649.153,67.187z"/>
			<path style="fill-rule:evenodd;clip-rule:evenodd;fill:#C0CDEA;" d="M158.811,322.444L158.811,322.444L158.811,322.444z
				 M155.515,309.894c-1.147-1.147-2.732-1.857-4.484-1.857c-1.75,0-3.336,0.71-4.483,1.857c-1.148,1.147-1.857,2.732-1.857,4.483
				c0,1.751,0.709,3.336,1.857,4.483c1.147,1.146,2.732,1.857,4.483,1.857c1.751,0,3.336-0.711,4.484-1.857
				c1.147-1.148,1.857-2.733,1.857-4.483C157.372,312.626,156.663,311.041,155.515,309.894L155.515,309.894z M154.145,303.609
				c0.878,0.252,1.711,0.61,2.485,1.058c0.793,0.458,1.526,1.012,2.181,1.643c0.128,0.122,0.318,0.142,0.464,0.056l2.946-1.701
				l0.016-0.009c0.169-0.092,0.362-0.109,0.538-0.063c0.181,0.05,0.344,0.166,0.444,0.34l0.012,0.02l2.073,3.591
				c0.1,0.173,0.12,0.373,0.071,0.555c-0.048,0.181-0.165,0.344-0.338,0.443l-0.021,0.013l-2.922,1.687
				c-0.153,0.089-0.223,0.267-0.183,0.43h-0.001c0.108,0.435,0.19,0.882,0.247,1.34c0.054,0.446,0.082,0.901,0.082,1.366
				c0,0.464-0.028,0.92-0.082,1.365c-0.056,0.458-0.139,0.905-0.247,1.341c-0.044,0.18,0.046,0.362,0.206,0.441l2.921,1.686v0.001
				c0.173,0.102,0.29,0.263,0.338,0.443c0.049,0.183,0.029,0.383-0.071,0.556l-2.085,3.61h0c-0.1,0.174-0.263,0.289-0.444,0.339
				c-0.181,0.049-0.38,0.029-0.553-0.071l-0.022-0.012l-2.926-1.69c-0.154-0.087-0.341-0.06-0.463,0.057
				c-0.655,0.632-1.387,1.185-2.181,1.644c-0.778,0.449-1.616,0.809-2.501,1.063c-0.172,0.05-0.283,0.205-0.284,0.375v3.398
				c0,0.2-0.081,0.382-0.214,0.515c-0.132,0.132-0.315,0.215-0.515,0.215h-4.171c-0.199,0-0.382-0.083-0.514-0.215
				c-0.132-0.133-0.214-0.315-0.214-0.515v-3.398c0-0.185-0.128-0.339-0.299-0.38c-0.879-0.253-1.712-0.611-2.486-1.058
				c-0.792-0.459-1.524-1.012-2.18-1.645c-0.134-0.128-0.335-0.141-0.484-0.043l-2.926,1.688c-0.173,0.101-0.373,0.12-0.554,0.071
				c-0.181-0.05-0.343-0.165-0.444-0.339l-0.012-0.02l-2.073-3.592l0-0.001c-0.1-0.172-0.12-0.372-0.071-0.554
				c0.049-0.182,0.165-0.343,0.337-0.443l2.944-1.698c0.153-0.089,0.224-0.267,0.184-0.43h0.001
				c-0.107-0.436-0.19-0.883-0.246-1.341c-0.054-0.445-0.082-0.901-0.082-1.365c0-0.465,0.028-0.92,0.082-1.366
				c0.056-0.458,0.139-0.905,0.246-1.34c0.044-0.181-0.045-0.362-0.206-0.441l-2.922-1.688c-0.171-0.099-0.288-0.262-0.337-0.443
				c-0.049-0.182-0.029-0.381,0.071-0.554l0.011-0.021l2.073-3.591l0,0.001c0.101-0.174,0.263-0.29,0.444-0.34
				c0.182-0.048,0.38-0.028,0.554,0.071h-0.001l2.947,1.701c0.157,0.091,0.352,0.061,0.472-0.064
				c0.653-0.628,1.382-1.179,2.172-1.635c0.778-0.45,1.617-0.81,2.5-1.064c0.172-0.049,0.284-0.205,0.284-0.374v-3.399
				c0-0.199,0.082-0.381,0.214-0.514c0.132-0.133,0.315-0.215,0.514-0.215h4.171c0.2,0,0.382,0.082,0.515,0.215
				c0.132,0.133,0.214,0.314,0.214,0.514v3.399C153.846,303.413,153.974,303.567,154.145,303.609z"/>
			<path style="fill-rule:evenodd;clip-rule:evenodd;fill:#9FB2D9;" d="M151.821,190.803c1.465,0,2.792,0.595,3.753,1.556
				l0.004,0.003c0.961,0.961,1.556,2.289,1.556,3.753c0,1.466-0.595,2.795-1.556,3.756c-0.961,0.961-2.29,1.556-3.757,1.556
				c-1.463,0-2.79-0.595-3.752-1.556l-0.005-0.005c-0.961-0.963-1.555-2.289-1.555-3.751c0-1.467,0.594-2.795,1.556-3.757
				C149.027,191.398,150.355,190.803,151.821,190.803L151.821,190.803z M154.345,193.591c-0.645-0.645-1.537-1.043-2.524-1.043
				c-0.985,0-1.877,0.399-2.521,1.044c-0.646,0.645-1.045,1.538-1.045,2.523c0,0.987,0.398,1.879,1.042,2.522l0.003,0.003
				c0.643,0.644,1.535,1.042,2.521,1.042c0.985,0,1.877-0.399,2.523-1.045c0.645-0.646,1.045-1.537,1.045-2.522
				C155.389,195.129,154.99,194.236,154.345,193.591z"/>
			<path style="fill-rule:evenodd;clip-rule:evenodd;fill:#9FB2D9;" d="M354.87,56.337c1.464,0,2.792,0.595,3.753,1.556l0.003,0.004
				c0.961,0.962,1.556,2.289,1.556,3.753c0,1.466-0.595,2.794-1.556,3.756c-0.961,0.961-2.29,1.556-3.756,1.556
				c-1.463,0-2.79-0.594-3.753-1.556l-0.005-0.005c-0.96-0.963-1.554-2.289-1.554-3.751c0-1.467,0.594-2.795,1.556-3.757
				C352.075,56.933,353.403,56.337,354.87,56.337L354.87,56.337z M357.393,59.126c-0.645-0.645-1.537-1.043-2.523-1.043
				c-0.985,0-1.877,0.399-2.522,1.044c-0.646,0.646-1.045,1.538-1.045,2.523c0,0.986,0.398,1.878,1.042,2.522l0.003,0.003
				c0.643,0.644,1.535,1.041,2.522,1.041c0.985,0,1.876-0.399,2.522-1.044c0.646-0.646,1.044-1.538,1.044-2.522
				C358.436,60.664,358.038,59.771,357.393,59.126z"/>
			<path style="fill-rule:evenodd;clip-rule:evenodd;fill:#9FB2D9;" d="M611.979,88.846c1.465,0,2.791,0.595,3.753,1.557
				l0.004,0.003c0.961,0.961,1.556,2.289,1.556,3.753c0,1.466-0.595,2.795-1.556,3.756c-0.962,0.961-2.29,1.556-3.757,1.556
				c-1.463,0-2.79-0.595-3.753-1.556l-0.005-0.005c-0.96-0.962-1.555-2.289-1.555-3.75c0-1.467,0.595-2.794,1.556-3.756
				C609.184,89.44,610.512,88.846,611.979,88.846L611.979,88.846z M614.503,91.634c-0.646-0.644-1.538-1.043-2.524-1.043
				c-0.984,0-1.877,0.4-2.522,1.045c-0.645,0.645-1.044,1.537-1.044,2.523c0,0.987,0.398,1.878,1.041,2.522l0.003,0.003
				c0.643,0.643,1.535,1.041,2.522,1.041c0.984,0,1.877-0.399,2.522-1.044c0.646-0.645,1.044-1.537,1.044-2.522
				C615.545,93.172,615.146,92.279,614.503,91.634z"/>
			<path style="fill-rule:evenodd;clip-rule:evenodd;fill:#9FB2D9;" d="M150.345,431.657c1.465,0,2.792,0.595,3.753,1.556
				l0.003,0.004c0.961,0.961,1.556,2.288,1.556,3.753c0,1.467-0.595,2.795-1.556,3.756c-0.961,0.962-2.29,1.556-3.756,1.556
				c-1.462,0-2.79-0.594-3.752-1.556l-0.005-0.005c-0.96-0.964-1.554-2.29-1.554-3.751c0-1.467,0.594-2.795,1.556-3.757
				C147.55,432.252,148.878,431.657,150.345,431.657L150.345,431.657z M152.869,434.445c-0.645-0.645-1.537-1.043-2.524-1.043
				c-0.985,0-1.877,0.399-2.521,1.045c-0.646,0.646-1.045,1.537-1.045,2.522c0,0.987,0.398,1.879,1.041,2.522l0.004,0.003
				c0.643,0.644,1.535,1.042,2.521,1.042c0.985,0,1.877-0.399,2.523-1.045c0.645-0.645,1.045-1.538,1.045-2.522
				C153.912,435.983,153.513,435.091,152.869,434.445z"/>
			<path style="fill-rule:evenodd;clip-rule:evenodd;fill:#C0CDEA;" d="M440.352,96.124c0-0.6,0.486-1.088,1.087-1.088
				c0.601,0,1.088,0.488,1.088,1.088v2.557h2.558c0.6,0,1.087,0.487,1.087,1.088c0,0.6-0.486,1.087-1.087,1.087h-2.558v2.558
				c0,0.6-0.487,1.086-1.088,1.086c-0.601,0-1.087-0.487-1.087-1.086v-2.558h-2.558c-0.601,0-1.088-0.488-1.088-1.087
				c0-0.601,0.487-1.088,1.088-1.088h2.558V96.124z"/>
			<path style="fill-rule:evenodd;clip-rule:evenodd;fill:#C0CDEA;" d="M154.38,249.01c0-0.6,0.488-1.087,1.088-1.087
				c0.601,0,1.088,0.488,1.088,1.087v2.558h2.557c0.601,0,1.087,0.486,1.087,1.087c0,0.602-0.487,1.089-1.087,1.089h-2.557v2.557
				c0,0.601-0.487,1.088-1.088,1.088c-0.6,0-1.088-0.487-1.088-1.088v-2.557h-2.557c-0.6,0-1.087-0.487-1.087-1.089
				c0-0.601,0.487-1.087,1.087-1.087h2.557V249.01z"/>
			<path style="fill-rule:evenodd;clip-rule:evenodd;fill:#C0CDEA;" d="M55.379,160.352c0-0.601,0.487-1.087,1.087-1.087
				c0.601,0,1.087,0.487,1.087,1.087v2.558h2.557c0.601,0,1.087,0.487,1.087,1.087s-0.487,1.087-1.087,1.087h-2.557v2.557
				c0,0.601-0.487,1.087-1.087,1.087c-0.6,0-1.087-0.487-1.087-1.087v-2.557h-2.557c-0.601,0-1.088-0.487-1.088-1.087
				s0.487-1.087,1.088-1.087h2.557V160.352z"/>
			<path style="fill-rule:evenodd;clip-rule:evenodd;fill:#C0CDEA;" d="M170.634,76.127c0-0.6,0.487-1.088,1.087-1.088
				c0.601,0,1.087,0.488,1.087,1.088v2.557h2.558c0.601,0,1.087,0.486,1.087,1.088c0,0.6-0.487,1.087-1.087,1.087h-2.558v2.558
				c0,0.6-0.487,1.086-1.087,1.086c-0.6,0-1.087-0.487-1.087-1.086v-2.558h-2.557c-0.601,0-1.088-0.487-1.088-1.087
				c0-0.602,0.487-1.088,1.088-1.088h2.557V76.127z"/>
			<path style="fill-rule:evenodd;clip-rule:evenodd;fill:#C0CDEA;" d="M681.896,76.127c0-0.6,0.487-1.088,1.088-1.088
				c0.602,0,1.088,0.488,1.088,1.088v2.557h2.557c0.601,0,1.087,0.486,1.087,1.088c0,0.6-0.486,1.087-1.087,1.087h-2.557v2.558
				c0,0.6-0.486,1.086-1.088,1.086c-0.601,0-1.088-0.487-1.088-1.086v-2.558h-2.557c-0.601,0-1.088-0.487-1.088-1.087
				c0-0.602,0.487-1.088,1.088-1.088h2.557V76.127z"/>
			<g>
				<path style="fill-rule:evenodd;clip-rule:evenodd;fill:#004C84;" d="M371.371,66.771h128.922c1.665,0,3.026,1.362,3.026,3.027
					v29.646c0,1.665-1.361,3.027-3.026,3.027H371.371c-1.665,0-3.026-1.362-3.026-3.027V69.798
					C368.344,68.133,369.706,66.771,371.371,66.771z"/>
				<path style="fill-rule:evenodd;clip-rule:evenodd;fill:#FFFFFF;" d="M376.142,72.553h19.817c0.87,0,1.581,0.711,1.581,1.581
					v20.974c0,0.87-0.711,1.582-1.581,1.582h-19.817c-0.87,0-1.582-0.712-1.582-1.582V74.134
					C374.56,73.264,375.271,72.553,376.142,72.553z"/>
				<g>
					<path style="fill-rule:evenodd;clip-rule:evenodd;fill:#FFFFFF;" d="M407.612,74.286h83.984c0.734,0,1.334,0.601,1.334,1.333
						v0.001c0,0.733-0.6,1.333-1.334,1.333h-83.984c-0.732,0-1.333-0.6-1.333-1.333V75.62
						C406.279,74.887,406.88,74.286,407.612,74.286z"/>
					<path style="fill-rule:evenodd;clip-rule:evenodd;fill:#FFFFFF;" d="M407.612,83.288h83.984c0.734,0,1.334,0.6,1.334,1.333l0,0
						c0,0.734-0.6,1.334-1.334,1.334h-83.984c-0.732,0-1.333-0.6-1.333-1.334l0,0C406.279,83.888,406.88,83.288,407.612,83.288z"/>
					<path style="fill-rule:evenodd;clip-rule:evenodd;fill:#FFFFFF;" d="M407.612,92.29h37.45c0.733,0,1.333,0.6,1.333,1.333v0
						c0,0.733-0.6,1.334-1.333,1.334h-37.45c-0.732,0-1.333-0.601-1.333-1.334v0C406.279,92.889,406.88,92.29,407.612,92.29z"/>
				</g>
			</g>
		</g>
		<g>
			<path style="fill-rule:evenodd;clip-rule:evenodd;fill:#F5AC83;" d="M261.01,272.581c0.338-0.237,1.705-0.302,2.626-0.981
				c2.327-1.72,5.395-4.556,5.98-3.972c0.607,0.604-1.192,2.056-1.192,2.056s2.039-1.307,2.196-0.575
				c0.157,0.732-1.359,2.039-1.359,2.039s1.883-0.94,1.935-0.052c0.052,0.888-1.778,2.456-1.778,2.456s2.038-0.364,1.255,0.576
				c-0.784,0.94-6.265,4.518-7.311,4.256C262.316,278.122,261.01,272.581,261.01,272.581z"/>
			<path style="fill-rule:evenodd;clip-rule:evenodd;fill:#F08E70;" d="M263.552,271.659c0.028-0.02,0.057-0.04,0.084-0.06
				c0.294-0.218,0.599-0.452,0.91-0.696c2.271,0.464,3.374,2.01,3.156,4.251c-0.022-0.114-0.775-3.144-3.977-3.482
				C263.655,271.667,263.598,271.664,263.552,271.659z"/>
			<path style="fill-rule:evenodd;clip-rule:evenodd;fill:#101537;" d="M186.93,349.275c-2.935,9.966-2.861,38.959-3.773,50.939
				c-1.4,18.399-3.958,46.517-3.773,48.006c0.185,1.489-7.732,2.435-8.918,0.053c0,0-0.243-0.352-0.162-1.623
				c0.081-1.272-1.186-123.868,0.323-127.008c1.678-3.489,35.16-3.489,36.838,0c1.509,3.14-0.663,125.843-0.583,127.114
				c0.082,1.271-0.162,1.623-0.162,1.623c-1.186,2.382-8.249,0.787-8.064-0.702c0.185-1.488-2.374-29.605-3.774-48.007
				c-0.911-11.978-2.146-40.902-4.412-51.045C188.445,339.56,188.529,343.846,186.93,349.275z"/>
			<path style="fill-rule:evenodd;clip-rule:evenodd;fill:#1874BA;" d="M207.092,446.224c0,0-0.401-1.261-0.952-1.261
				c-0.551,0-3.199,0-3.718,0c-0.519,0-2.373,0.467-2.373,1.98c0,0-1.176,1.006-1.377,1.25c-0.201,0.244-0.374,0.497-0.374,1.334
				c0,0.837,0,4.067,0,4.671c0,0.604-0.167,2.983,3.943,2.983c4.11,0,6.561,0,7.836,0c1.274,0,2.257-1.123,2.257-2.188
				c0-1.063-0.22-2.141-1.597-4.111c-1.377-1.971-2.372-3.432-2.372-3.432S207.749,446.519,207.092,446.224z"/>
			<path style="fill-rule:evenodd;clip-rule:evenodd;fill:#FFFFFF;" d="M212.368,454.781h-13.939c-0.35,0-0.636,0.285-0.636,0.635
				v1.15c0,0.35,0.286,0.636,0.636,0.636h13.939c0.35,0,0.636-0.286,0.636-0.636v-1.15
				C213.004,455.066,212.717,454.781,212.368,454.781z"/>
			<path style="fill-rule:evenodd;clip-rule:evenodd;fill:#1874BA;" d="M170.645,446.224c0,0,0.402-1.261,0.954-1.261
				c0.55,0,3.198,0,3.717,0c0.519,0,2.372,0.467,2.372,1.98c0,0,1.177,1.006,1.378,1.25c0.201,0.244,0.374,0.497,0.374,1.334
				c0,0.837,0,4.067,0,4.671c0,0.604,0.167,2.983-3.943,2.983c-4.111,0-6.561,0-7.836,0c-1.274,0-2.257-1.123-2.257-2.188
				c0-1.063,0.22-2.141,1.598-4.111c1.377-1.971,2.372-3.432,2.372-3.432S169.989,446.519,170.645,446.224z"/>
			<path style="fill-rule:evenodd;clip-rule:evenodd;fill:#FFFFFF;" d="M165.37,454.781h13.94c0.35,0,0.636,0.285,0.636,0.635v1.15
				c0,0.35-0.287,0.636-0.636,0.636h-13.94c-0.349,0-0.636-0.286-0.636-0.636v-1.15C164.734,455.066,165.021,454.781,165.37,454.781
				z"/>
			<path style="fill-rule:evenodd;clip-rule:evenodd;fill:#1874BA;" d="M194.74,249.985c0,0-1.552-2.092,0.582,3.69
				c1.523,4.13,20.013,19.638,28.394,26.111c8.397,6.485,8.746,5.358,19.752,3.615c8.054-1.275,17.217-3.33,19.364-4.95
				c0,0,0.395-0.327-0.123-0.761s-2.634-1.485-2.848-2.509c-0.214-1.023-0.984-0.8-1.933-0.278
				c-0.948,0.523-18.683-0.572-23.164-0.828c-4.481-0.255-20.262-21.054-22.639-23.101
				C209.747,248.926,201.099,245.441,194.74,249.985z"/>
			<path style="fill-rule:evenodd;clip-rule:evenodd;fill:#1874BA;" d="M182.396,242.079c7.6,1.205,5.46,1.183,13.116,0.006
				l0.882,0.432l12.703,6.204l-1.33,22.534c-0.083,1.271-0.165,2.491-0.248,3.669l-0.05,2.384c0,0,2.544,37.169,2.335,37.972
				c-0.208,0.804-1.893,2.718-1.893,2.718c0.066,0.508,0.139,1.048,0.216,1.613c-3.035,1.271-4.612,7.342-19.723,6.896
				c-7.116,0.751-20.56-4.715-20.154-7.816c0,0,1.732-2.977,1.524-3.779c-0.208-0.804,0.674-37.603,0.674-37.603l-0.05-2.384
				c-0.083-1.178-0.165-2.398-0.249-3.669l-1.329-22.534l12.703-6.204L182.396,242.079z"/>
			<path style="fill-rule:evenodd;clip-rule:evenodd;fill:#FFFFFF;" d="M189.165,242.971l-0.286,0.042l-0.308-0.045
				c-1.268-0.046-2.708-0.34-6.175-0.89l-0.871,0.438l-1.763,0.861l0.563,0.611c5.809,6.301,11.455,6.301,17.263,0l0.564-0.613
				l-1.758-0.859l-0.882-0.432C191.899,242.64,190.468,242.939,189.165,242.971z"/>
			<path style="fill-rule:evenodd;clip-rule:evenodd;fill:#E9695B;" d="M183.652,227.816l0.155,3.643c0,0,0,7.462,0,8.595
				c0,0.547-0.511,1.337-1.412,2.025c4.681,5.077,8.441,5.077,13.122,0c-0.901-0.688-1.412-1.477-1.412-2.025
				c0-1.133,0-8.595,0-8.595l0.155-3.643c0,0-2.611,0.469-5.305,1.129C186.263,228.285,183.652,227.816,183.652,227.816z"/>
			<path style="fill-rule:evenodd;clip-rule:evenodd;fill:#E26757;" d="M201.971,222.528c-2.073,0.018-3.739,1.713-3.721,3.787
				c0.018,2.074,1.713,3.74,3.786,3.722c2.073-0.018,3.74-1.713,3.722-3.787C205.74,224.177,204.044,222.511,201.971,222.528z"/>
			<path style="fill-rule:evenodd;clip-rule:evenodd;fill:#E26757;" d="M176.255,222.751c-2.074,0.018-3.74,1.713-3.722,3.786
				c0.018,2.073,1.713,3.74,3.786,3.722c2.073-0.018,3.74-1.714,3.722-3.787C180.023,224.399,178.328,222.733,176.255,222.751z"/>
			<path style="fill-rule:evenodd;clip-rule:evenodd;fill:#F5AC83;" d="M188.983,202.692L188.983,202.692
				c-7.072,0.061-12.808,5.897-12.747,12.97l0.101,11.685c0.061,7.073,5.897,12.809,12.969,12.747l0,0
				c7.073-0.06,12.809-5.897,12.748-12.969l-0.101-11.686C201.892,208.368,196.056,202.632,188.983,202.692z"/>
			<path style="fill-rule:evenodd;clip-rule:evenodd;fill:#F08E70;" d="M189.666,240.086c6.906-0.251,12.448-6.009,12.388-12.961
				l-0.101-11.685c-0.044-5.115-3.109-9.53-7.478-11.56l-12.21,4.732c0,0-5.782,5.384-4.694,8.473l1.11-0.64c0,0,14.521,0,16.188,0
				c1.665,0,4.441,1.409,4.441,5.21c0,3.802,0,6.412,0,8.814C199.31,232.87,195.965,239.609,189.666,240.086z"/>
			<path style="fill-rule:evenodd;clip-rule:evenodd;fill:#FFFFFF;" d="M185.68,229.857c0.018,2.113,1.746,3.811,3.859,3.792
				c2.113-0.019,3.811-1.746,3.793-3.858h-0.007c-0.002-0.364-0.302-0.658-0.666-0.655l-6.318,0.055
				c-0.363,0.003-0.657,0.303-0.655,0.667H185.68z"/>
			<path style="fill-rule:evenodd;clip-rule:evenodd;fill:#00000F;" d="M175.129,222.933c0,0-3.093-4.552-1.428-10.351l5.564,2.827
				c0,0,0.18,3.346-1.967,4.581c0,0,0,2.121,0,3.141c0,1.02-0.547,2.044-1.005,2.309
				C176.292,225.44,176.292,222.751,175.129,222.933z"/>
			<path style="fill-rule:evenodd;clip-rule:evenodd;fill:#070F2C;" d="M194.102,210.757c0,0-15.247,8.322-21.53,2.738
				c-8.372-7.442,8.93-34.379,27.302-8.242c0,0,0.966-1.826,3.221-1.235c2.255,0.59,4.295,5.101,0.43,6.766
				c0,0,2.96,4.142-0.668,11.842c0,0-0.848,0.372-0.848,2.68v1.182c0,0-1.035-0.752-1.035-2.416c0-1.664,0-4.617,0-4.617
				s-3.168-4.242-2.551-7.061C195.618,215.245,192.576,213.973,194.102,210.757z"/>
			<path style="fill-rule:evenodd;clip-rule:evenodd;fill:#00000F;" d="M203.525,210.784c0,0,2.96,4.142-0.668,11.842
				c0,0-0.848,0.372-0.848,2.68v1.182c0,0-1.035-0.752-1.035-2.416c0-1.664,0-4.617,0-4.617s-3.167-4.242-2.551-7.06
				C202.34,215.379,203.525,210.784,203.525,210.784z"/>
			<path style="fill-rule:evenodd;clip-rule:evenodd;fill:#F5AC83;" d="M167.873,320.974c1.2,2.678,2.678,4.155,2.678,4.155
				s2.771-3.694,2.401-5.541c-0.37-1.847-3.325-2.77-3.325-2.77L167.873,320.974z"/>
			<path style="fill-rule:evenodd;clip-rule:evenodd;fill:#1874BA;" d="M168.993,249.231c0,0,1.466-2.153-3.295,1.76
				c-3.401,2.796-10.278,20.541-13.641,30.584c-4.574,13.658,4.413,32.454,16.319,40.423c0.453-1.871,0.909-4.285,2.62-5.313
				c0.264-0.158-1.263-1.91-2.328-4.436c-2.561-6.068-6.652-16.392-7.197-18.304c-1.229-4.317,11.918-26.05,13.072-28.968
				C175.696,262.059,175.372,253.746,168.993,249.231z"/>
			<path style="fill-rule:evenodd;clip-rule:evenodd;fill:#F5AC83;" d="M259.763,276.274c-1.224-1.916-0.093-4.617-0.277-5.633
				c-0.185-1.016-0.282-2.352,0.647-2.056c1.015,0.323,1.731,2.771,1.731,3.51c0,0.739,3.764,2.609,4.087,4.041
				c0.323,1.431-2.494,2.632-3.879,2.262C260.686,278.029,259.763,276.274,259.763,276.274z"/>
			<path style="fill-rule:evenodd;clip-rule:evenodd;fill:#F08E70;" d="M262.341,276.893c-1.477-0.889-2.636-2.954-2.976-4.747
				c-0.105,0.696-0.224,1.513-0.162,2.318c0.048,0.63,0.205,1.254,0.56,1.811c0,0,0.924,1.755,2.309,2.124
				c0.219,0.059,0.474,0.078,0.747,0.064c0.182-0.011,0.371-0.035,0.563-0.074c0.845,0.165,4.271-1.909,6.145-3.293
				c-1.095,0.55-2.393,1.215-3.624,1.657c-1.296,0.466-2.517,0.684-3.346,0.261C262.485,276.975,262.412,276.935,262.341,276.893z"
				/>
			<path style="fill-rule:evenodd;clip-rule:evenodd;fill:#004C84;" d="M208.352,261.353l-0.321,5.456
				c5.588,4.908,11.751,9.938,15.685,12.978c8.397,6.485,8.746,5.358,19.752,3.615c8.038-1.272,17.18-3.321,19.351-4.939
				c-0.273,0.015-0.528-0.005-0.747-0.064c-0.058-0.016-0.115-0.033-0.171-0.053c-4.569,1.538-22.907,4.073-28.273,3.121
				C228.321,280.524,210.872,263.792,208.352,261.353z"/>
			<path style="fill-rule:evenodd;clip-rule:evenodd;fill:#004C84;" d="M161.471,293.945c-0.813-2.855,4.662-13.326,8.797-20.937
				c-0.255-5.046-0.187-5.95-0.336-5.481c-0.008,0.024-0.016,0.055-0.026,0.087c-0.185,0.646-10.251,16.532-10.528,21.333
				c-0.277,4.803,9.143,23.643,9.143,23.643s-0.01-0.266-0.026-0.755C165.925,305.723,162.003,295.815,161.471,293.945z"/>
		</g>
		<path style="fill-rule:evenodd;clip-rule:evenodd;fill:#1874BA;" d="M470.682,323.578h34.745c1.829,0,3.325,1.497,3.325,3.325
			v25.489c0,1.828-1.496,3.324-3.325,3.324h-34.745c-1.828,0-3.324-1.496-3.324-3.324v-25.489
			C467.357,325.075,468.853,323.578,470.682,323.578z"/>
		<text transform="matrix(1 0 0 1 475.0381 346.1641)"><tspan x="0" y="0" style="fill:#FFFFFF; font-family:'OpenSans-Extrabold'; font-size:14.7764px;">$</tspan><tspan x="8.658" y="0" style="fill:#FFFFFF; font-family:'OpenSans-Extrabold'; font-size:14.7764px;">50</tspan></text>
		<path style="fill-rule:evenodd;clip-rule:evenodd;fill:#FCC100;" d="M522.399,323.578h34.745c1.828,0,3.325,1.497,3.325,3.325
			v25.489c0,1.828-1.497,3.324-3.325,3.324h-34.745c-1.829,0-3.324-1.496-3.324-3.324v-25.489
			C519.075,325.075,520.57,323.578,522.399,323.578z"/>
		<path style="fill-rule:evenodd;clip-rule:evenodd;fill:#E94D90;" d="M574.116,323.578h43.611c1.828,0,3.324,1.497,3.324,3.325
			v25.489c0,1.828-1.496,3.324-3.324,3.324h-43.611c-1.828,0-3.324-1.496-3.324-3.324v-25.489
			C570.792,325.075,572.288,323.578,574.116,323.578z"/>
		<text transform="matrix(1 0 0 1 526.7549 346.1641)"><tspan x="0" y="0" style="fill:#FFFFFF; font-family:'OpenSans-Extrabold'; font-size:14.7764px;">$</tspan><tspan x="8.658" y="0" style="fill:#FFFFFF; font-family:'OpenSans-Extrabold'; font-size:14.7764px;">70</tspan></text>
		<text transform="matrix(1 0 0 1 579.2461 346.1641)"><tspan x="0" y="0" style="fill:#FFFFFF; font-family:'OpenSans-Extrabold'; font-size:14.7764px;">$</tspan><tspan x="8.658" y="0" style="fill:#FFFFFF; font-family:'OpenSans-Extrabold'; font-size:14.7764px;">100</tspan></text>
	</g>
</g>
<g id="DESIGNED_BY_FREEPIK">
	<path style="fill:#1C262D;" d="M385.646,475.844c-0.941,0.966-1.562,2.167-1.791,3.473l-0.748-0.132
		c0.107-0.604,0.289-1.19,0.539-1.743l-0.451-0.234c-0.057,0.026-0.117,0.045-0.184,0.052c-0.33,0.039-0.631-0.197-0.67-0.528
		c-0.037-0.331,0.199-0.631,0.529-0.67c0.31-0.036,0.592,0.169,0.66,0.466l0.465,0.241c0.305-0.522,0.676-1.01,1.107-1.453
		L385.646,475.844z M387.596,474.444c0.936-0.447,1.941-0.674,2.996-0.674c0.496,0,0.992,0.053,1.475,0.158l0.16-0.741
		c-0.535-0.116-1.084-0.175-1.635-0.175c-0.172,0-0.342,0.006-0.51,0.017l-0.074-0.626c0.188-0.149,0.297-0.389,0.266-0.645
		c-0.045-0.393-0.402-0.674-0.795-0.628c-0.393,0.046-0.674,0.402-0.627,0.796c0.029,0.254,0.189,0.461,0.404,0.563l0.072,0.624
		c-0.713,0.116-1.402,0.332-2.059,0.646L387.596,474.444z M397.047,474.362c-0.309,0.038-0.535,0.304-0.529,0.608l-0.416,0.363
		c-0.418-0.43-0.891-0.813-1.408-1.14l-0.404,0.642c1.135,0.715,2.021,1.727,2.564,2.925l0.69-0.313
		c-0.25-0.554-0.566-1.071-0.941-1.545l0.402-0.351c0.061,0.012,0.125,0.016,0.189,0.007c0.332-0.04,0.566-0.341,0.525-0.672
		C397.68,474.557,397.379,474.321,397.047,474.362z M390.045,483.221c-0.387,0.023-0.775,0.035-1.158,0.035
		c-0.879,0-1.732-0.061-2.478-0.18c-0.391-0.062-0.846-0.154-1.27-0.292c1.047,1.861,3.068,3.125,5.389,3.125
		c2.855,0,5.262-1.916,5.949-4.503c-0.682,0.449-1.506,0.825-2.459,1.122C392.838,482.897,391.463,483.136,390.045,483.221z
		 M396.623,479.725c0.025,0.191,0.041,0.387,0.045,0.581c-1.375,1.201-3.791,1.985-6.672,2.159
		c-2.641,0.159-4.674-0.248-5.348-0.731c-0.09-0.412-0.137-0.836-0.137-1.261c0-3.277,2.729-5.943,6.08-5.943
		C393.65,474.529,396.244,476.763,396.623,479.725z M390.281,479.194c0-1.021-0.83-1.85-1.85-1.85c-1.02,0-1.85,0.83-1.85,1.85
		c0,1.02,0.83,1.85,1.85,1.85C389.451,481.044,390.281,480.214,390.281,479.194z M394.529,478.775c0-0.75-0.609-1.36-1.359-1.36
		s-1.361,0.61-1.361,1.36s0.611,1.36,1.361,1.36S394.529,479.525,394.529,478.775z M404.369,477.165
		c0-0.666,0.293-0.938,0.844-1.007c0.576-0.071,1.088,0.122,1.383,0.238v-1.729c-0.434-0.187-0.947-0.308-1.59-0.308
		c-1.674,0-2.568,1.102-2.568,2.782v0.889h-1.34v1.717h1.34v5.455h1.932v-5.455h2.229v-1.717h-2.229V477.165z M411.223,477.839
		c-0.881,0-1.568,0.304-2.02,0.977v-0.784h-1.873v7.172h1.932v-3.908c0-1.065,0.615-1.613,1.51-1.613
		c0.168,0,0.35,0.017,0.525,0.046l1.021-1.552C412.07,477.967,411.637,477.839,411.223,477.839z M418.965,481.606
		c0,0.222-0.016,0.488-0.037,0.651h-5.084c0.207,1.036,0.932,1.487,1.842,1.487c0.623,0,1.295-0.252,1.815-0.688l1.133,1.243
		c-0.814,0.748-1.852,1.089-3.057,1.089c-2.199,0-3.725-1.496-3.725-3.753c0-2.258,1.48-3.797,3.627-3.797
		C417.543,477.839,418.957,479.371,418.965,481.606z M417.025,480.94c-0.178-0.918-0.732-1.436-1.561-1.436
		c-0.91,0-1.443,0.548-1.613,1.436H417.025z M426.619,481.606c0,0.222-0.016,0.488-0.037,0.651h-5.086
		c0.207,1.036,0.934,1.487,1.844,1.487c0.621,0,1.295-0.252,1.813-0.688l1.133,1.243c-0.814,0.748-1.85,1.089-3.057,1.089
		c-2.199,0-3.723-1.496-3.723-3.753c0-2.258,1.48-3.797,3.627-3.797C425.197,477.839,426.611,479.371,426.619,481.606z
		 M424.68,480.94c-0.178-0.918-0.734-1.436-1.563-1.436c-0.91,0-1.443,0.548-1.613,1.436H424.68z M434.965,481.613
		c0,2.154-1.496,3.775-3.473,3.775c-0.961,0-1.643-0.378-2.109-0.933v3.708h-1.924v-10.133h1.887v0.792
		c0.467-0.585,1.154-0.984,2.139-0.984C433.469,477.839,434.965,479.46,434.965,481.613z M432.98,481.613
		c0-1.095-0.711-1.976-1.85-1.976c-1.096,0-1.844,0.844-1.844,1.976c0,1.133,0.748,1.977,1.844,1.977
		C432.27,483.59,432.98,482.709,432.98,481.613z M436.832,474.441c-0.697,0-1.229,0.548-1.229,1.243
		c0,0.696,0.531,1.229,1.229,1.229c0.695,0,1.236-0.533,1.236-1.229C438.068,474.989,437.527,474.441,436.832,474.441z
		 M435.877,485.203h1.932v-7.172h-1.932V485.203z M442.623,481.406l3.479-3.375h-2.367l-2.703,2.554v-6.04H439.1v10.658h1.932
		v-2.901l2.717,2.901h2.377L442.623,481.406z M309.412,475.368h1.099v9.771h-1.099v-1.055c-0.527,0.718-1.392,1.23-2.388,1.23
		c-1.846,0-3.149-1.406-3.149-3.706c0-2.256,1.289-3.721,3.149-3.721c0.952,0,1.816,0.469,2.388,1.245V475.368z M309.412,480.012
		c-0.396-0.615-1.245-1.143-2.124-1.143c-1.421,0-2.27,1.172-2.27,2.739s0.85,2.725,2.27,2.725c0.879,0,1.729-0.498,2.124-1.113
		V480.012z M318.815,481.682v0.278h-5.727c0.088,1.333,1.025,2.446,2.549,2.446c0.806,0,1.626-0.322,2.182-0.894l0.527,0.718
		c-0.703,0.703-1.654,1.084-2.812,1.084c-2.095,0-3.604-1.509-3.604-3.721c0-2.051,1.465-3.706,3.486-3.706
		C317.557,477.888,318.815,479.558,318.815,481.682z M317.732,481.154c-0.015-1.055-0.718-2.358-2.329-2.358
		c-1.509,0-2.256,1.274-2.314,2.358H317.732z M320.866,479.895c0-0.63,0.601-1.113,1.567-1.113c0.908,0,1.685,0.381,2.109,0.893
		l0.513-0.762c-0.571-0.571-1.421-1.025-2.622-1.025c-1.685,0-2.637,0.938-2.637,2.036c0,2.622,4.38,1.567,4.38,3.281
		c0,0.703-0.586,1.216-1.67,1.216c-0.967,0-1.86-0.469-2.329-1.011l-0.571,0.791c0.718,0.762,1.699,1.113,2.857,1.113
		c1.831,0,2.783-0.952,2.783-2.139C325.246,480.422,320.866,481.447,320.866,479.895z M327.209,475.573
		c-0.396,0-0.732,0.337-0.732,0.747c0,0.41,0.337,0.732,0.732,0.732c0.41,0,0.747-0.322,0.747-0.732
		C327.956,475.91,327.619,475.573,327.209,475.573z M326.667,485.139h1.099v-7.075h-1.099V485.139z M334.708,478.064h1.099v6.87
		c0,2.344-1.641,3.076-3.369,3.076c-1.201,0-2.022-0.235-2.855-1.055l0.556-0.82c0.586,0.703,1.289,0.967,2.3,0.967
		c1.172,0,2.271-0.571,2.271-2.124v-1.011c-0.513,0.718-1.377,1.26-2.373,1.26c-1.846,0-3.15-1.377-3.15-3.662
		c0-2.271,1.289-3.677,3.15-3.677c0.952,0,1.802,0.469,2.373,1.245V478.064z M334.708,480.012c-0.381-0.615-1.23-1.143-2.109-1.143
		c-1.421,0-2.27,1.128-2.27,2.695c0,1.553,0.849,2.695,2.27,2.695c0.879,0,1.728-0.542,2.109-1.157V480.012z M341.256,477.888
		c-1.055,0-2.021,0.615-2.52,1.201v-1.025h-1.099v7.075h1.099v-5.171c0.41-0.571,1.23-1.099,2.095-1.099
		c0.952,0,1.582,0.395,1.582,1.641v4.629h1.099v-4.966C343.512,478.635,342.735,477.888,341.256,477.888z M351.816,481.682v0.278
		h-5.727c0.088,1.333,1.025,2.446,2.548,2.446c0.806,0,1.626-0.322,2.183-0.894l0.527,0.718c-0.703,0.703-1.655,1.084-2.813,1.084
		c-2.094,0-3.604-1.509-3.604-3.721c0-2.051,1.465-3.706,3.486-3.706C350.557,477.888,351.816,479.558,351.816,481.682z
		 M350.732,481.154c-0.015-1.055-0.718-2.358-2.329-2.358c-1.509,0-2.256,1.274-2.314,2.358H350.732z M358.35,475.368h1.099v9.771
		h-1.099v-1.055c-0.527,0.718-1.392,1.23-2.388,1.23c-1.846,0-3.149-1.406-3.149-3.706c0-2.256,1.289-3.721,3.149-3.721
		c0.952,0,1.816,0.469,2.388,1.245V475.368z M358.35,480.012c-0.395-0.615-1.245-1.143-2.124-1.143c-1.421,0-2.27,1.172-2.27,2.739
		s0.85,2.725,2.27,2.725c0.879,0,1.729-0.498,2.124-1.113V480.012z M371.327,481.608c0,2.3-1.304,3.706-3.149,3.706
		c-0.996,0-1.86-0.513-2.388-1.23v1.055h-1.099v-9.771h1.099v3.765c0.571-0.776,1.421-1.245,2.388-1.245
		C370.023,477.888,371.327,479.353,371.327,481.608z M370.185,481.608c0-1.567-0.85-2.739-2.285-2.739
		c-0.864,0-1.728,0.527-2.109,1.143v3.208c0.381,0.615,1.245,1.113,2.109,1.113C369.335,484.333,370.185,483.176,370.185,481.608z
		 M375.238,483.864l-2.358-5.801h-1.186l2.959,7.148l-0.469,1.069c-0.249,0.586-0.571,0.747-1.055,0.747
		c-0.176,0-0.439-0.044-0.601-0.117l-0.176,0.995c0.205,0.059,0.571,0.103,0.806,0.103c0.938-0.015,1.655-0.411,2.08-1.436
		l3.545-8.511h-1.201L375.238,483.864z"/>
</g>
</svg>
